<svg id="Layer_1" data-name="Layer 1" xmlns="http://www.w3.org/2000/svg" viewBox="0 0 77.32 45.99"><defs><style>.cls-1{fill:#ffb819;}.cls-2{fill:#fff;}</style></defs><title>logo</title><path class="cls-1" d="M10.25,20.64S8.61,25.13,8,26.92h0C7.2,24.55,6.19,21.25,5.84,20.1a8.14,8.14,0,0,1-.45-1.8,0.55,0.55,0,0,1,.22-0.55,1.06,1.06,0,0,1,.53-0.09c0.21,0,.42,0,0.42-0.31S6.46,17.1,6.07,17.1c-1.22,0-2.59.07-2.78,0.07S1.56,17.1.47,17.1c-0.29,0-.45,0-0.46.2a0.3,0.3,0,0,0,.38.34,1.79,1.79,0,0,1,.84.2A2.67,2.67,0,0,1,2,19.26l4.46,14c0.2,0.59.27,0.61,0.38,0.61s0.26-.05.62-1.06L11,22.95Z" transform="translate(0 0)"/><path class="cls-1" d="M43.86,0.43A0.66,0.66,0,0,0,43.93,0a0.63,0.63,0,0,0-.34.19l-4,3.46-5.47-3.6A0.29,0.29,0,0,0,33.9,0,0.3,0.3,0,0,0,34,.26L36.9,5.48,31,9.86a0.89,0.89,0,0,0-.4.44,0.86,0.86,0,0,0,.58,0l6.64-1.69L38.54,14a0.57,0.57,0,0,0,.14.37A0.63,0.63,0,0,0,38.91,14l1.86-5.79L45,9.71a0.54,0.54,0,0,0,.4,0,0.8,0.8,0,0,0-.24-0.41l-3-3.79Z" transform="translate(0 0)"/><path class="cls-1" d="M29.92,10.5c0.06,0-.31.37-0.27,0.41s0.64-.16.54-0.06a6.07,6.07,0,0,1-1.38.67c-0.22,0-.13-0.11,0-0.21A3.2,3.2,0,0,1,29.92,10.5Z" transform="translate(0 0)"/><path class="cls-1" d="M27.86,11.78a1.94,1.94,0,0,1-.06.27,0.72,0.72,0,0,1,.27,0,3.59,3.59,0,0,1-1.08.55c-0.17,0-.1-0.09,0-0.17A2.5,2.5,0,0,1,27.86,11.78Z" transform="translate(0 0)"/><path class="cls-1" d="M38.71,14.82c-0.08,0-.11-0.05-0.15,0a1.59,1.59,0,0,0,.1,1A1.62,1.62,0,0,0,38.87,15C38.87,14.72,38.8,14.82,38.71,14.82Z" transform="translate(0 0)"/><path class="cls-1" d="M26.09,12.94a0.71,0.71,0,0,1,0,.11s0.13,0,.1.08a2,2,0,0,1-.62.36c-0.1,0-.06-0.06,0-0.11A1.46,1.46,0,0,1,26.09,12.94Z" transform="translate(0 0)"/><path class="cls-2" d="M28.68,17.06c-0.69,0-1.6.07-1.74,0.07s-1.07-.07-2.19-0.07c-0.32,0-.56,0-0.56.26a0.33,0.33,0,0,0,.41.32c0.82,0,1,.29,1,0.61a4.47,4.47,0,0,1-.21,1.16c-0.49,1.72-2.17,7.2-2.17,7.2h0L19.89,18C19.62,17.31,19.48,17,19.28,17s-0.27.17-.52,0.81l-3.3,9.14h0c-0.72-2.37-1.72-5.67-2.08-6.82a8.16,8.16,0,0,1-.45-1.8,0.55,0.55,0,0,1,.22-0.55,1.06,1.06,0,0,1,.53-0.09c0.21,0,.41,0,0.41-0.31s-0.09-.25-0.48-0.25c-1.22,0-2.59.07-2.78,0.07S9.07,17.09,8,17.09c-0.29,0-.44,0-0.46.2s0.17,0.34.38,0.34a1.78,1.78,0,0,1,.84.2,2.67,2.67,0,0,1,.74,1.43l4.45,14c0.21,0.59.27,0.61,0.38,0.61s0.26-.06.62-1.06,2.27-6.22,3.42-9.37l3.8,9.63c0.31,0.76.39,0.81,0.56,0.81s0.21-.11.42-0.81c1-3.32,2.91-10.34,3.72-13.21,0.36-1.29.67-2,1.17-2.17a2.32,2.32,0,0,1,.75-0.13,0.31,0.31,0,0,0,.31-0.35A0.35,0.35,0,0,0,28.68,17.06Z" transform="translate(0 0)"/><path class="cls-2" d="M49.36,17c-1,0-1.83.07-2.06,0.07-0.44,0-1.45-.07-2.54-0.07-0.31,0-.55.1-0.55,0.28s0.08,0.28.34,0.28a3.24,3.24,0,0,1,1.11.13c0.5,0.22.69,0.48,0.71,1.83l0.08,6.31h0s-5.61-7.79-6.36-8.67A0.46,0.46,0,0,0,39.68,17c-0.13,0-1.34.09-1.82,0.08-0.19,0-1.37-.07-2.46-0.07-0.29,0-.44,0-0.46.2s0.17,0.34.38,0.34a1.77,1.77,0,0,1,.84.2c0.29,0.22.38,0.52,0.41,1.48h0V30.49c0,1.82-.1,2.41-0.65,2.58a3.56,3.56,0,0,1-.95.11,0.31,0.31,0,0,0-.37.26c0,0.2.22,0.29,0.49,0.29,1.09,0,2.08-.07,2.27-0.07,0.4,0,1.24.07,2.61,0.07a0.42,0.42,0,0,0,.5-0.29,0.3,0.3,0,0,0-.37-0.25A3.2,3.2,0,0,1,39,33c-0.42-.16-0.76-0.46-0.76-2.32l-0.13-9.4v-0.7h0c1.24,1.38,3.42,4.79,4.6,6.44,1.69,2.35,3.77,5.67,4.55,6.65a0.38,0.38,0,0,0,.32.16c0.12,0,.3-0.09.3-0.61l0.14-13.91c0-1.24.19-1.54,0.78-1.72a2.17,2.17,0,0,1,.63-0.07c0.25,0,.38-0.08.38-0.28A0.4,0.4,0,0,0,49.36,17Z" transform="translate(0 0)"/><path class="cls-2" d="M37.54,42.84a1.26,1.26,0,0,1,.44.11,1.73,1.73,0,0,1-.07-0.41,5.89,5.89,0,0,1,.83,1,0.31,0.31,0,0,1,.07.29c-0.06.06-.16,0-0.29-0.11A4.52,4.52,0,0,1,37.54,42.84Z" transform="translate(0 0)"/><path class="cls-2" d="M37,9.87l0.42,3.4a5.18,5.18,0,0,0-1.7,1.18c-7.64,8.05-3.47,21.7,1.47,27.34a0.75,0.75,0,0,1,.23.57,0.62,0.62,0,0,1-.54-0.25c-3.21-3.29-12.72-14.81-3.71-31.42Z" transform="translate(0 0)"/><path class="cls-2" d="M41.51,46a0.52,0.52,0,0,0-.29-0.32,0.13,0.13,0,0,0-.11.19,0.53,0.53,0,0,0,.35.15Z" transform="translate(0 0)"/><path class="cls-2" d="M39.18,44.26a1.8,1.8,0,0,0,.2,0,0.77,0.77,0,0,0,0-.18,9.84,9.84,0,0,1,1.31,1.15s0.17,0.15.1,0.21a1.66,1.66,0,0,1-.5-0.3A5.54,5.54,0,0,1,39.18,44.26Z" transform="translate(0 0)"/><path class="cls-1" d="M63.61,27.16c-0.12,1.94-.22,3.91-0.22,5.85H52V32l4.05-4c1.58-1.55,3.45-3.76,3.45-6a3.11,3.11,0,0,0-6.16-.83c1.31,0.19,3,.95,3,2.38a1.47,1.47,0,0,1-1.5,1.63c-1.19,0-2.23-1.48-2.23-2.82a5.34,5.34,0,0,1,5.46-5.65C60.55,16.65,63,18.33,63,21c0,3.86-5.58,6.92-7.91,8.88v0h6.33c0.92,0,1.16-.22,1.24-1l0.15-1.77h0.85Z" transform="translate(0 0)"/><path class="cls-1" d="M66.74,24.86V16.39a27.76,27.76,0,0,0,6.72,1c1.29,0,2.69-.36,3.25-1.53l0.61,0.29c-1.43,2.79-2.16,4.32-5.65,4.32a26.23,26.23,0,0,1-4.1-.46v3.71a8.2,8.2,0,0,1,4.34-1.14,5.12,5.12,0,0,1,5.41,5c0,3.37-2.82,5.73-6.8,5.73-2.33,0-5-1-5-3.66a2.07,2.07,0,0,1,1.84-2.23,1.52,1.52,0,0,1,1.36,1.55,7.2,7.2,0,0,1-1,3,2.93,2.93,0,0,0,1.63.48c2.72,0,4.22-2,4.22-4.64,0-2-1.21-3.86-3.42-3.86a5.28,5.28,0,0,0-2.84,1Z" transform="translate(0 0)"/></svg>