<svg id="Layer_1" xmlns="http://www.w3.org/2000/svg" viewBox="0 0 400 26.8"><style>.st0{fill:#4a7235}</style><path class="st0" d="M227.2 18.8c-24.3-.9-55-1.9-83.4-2.7 10.8-.5 19.1-.8 22-1 8.5-.5 17.4-1 25.2-1.2 36.3-1 77.5-2.6 109.3-4 34.8-1.4 63.4-3 92.6-5.1 2.2-.2 4.6-.3 7.1-.4V0c-5.2.2-10.9.5-16.6.9-26.3 1.9-60.1 3.7-95.2 5.1-12.1.5-24 1.1-35.5 1.6-22.5 1.1-43.7 2.1-65.8 2.7-25.3.7-77.5 2.7-101.7 3.6-24.3-.9-56.8-1.9-61.2-2-3.2 0-12.4-.3-23.9-.8v2.2c11.5.4 28.6.9 31.5 1 0 0 8.6.3 21 .7-12.4.5-26.3 1-28.7 1-1.3 0-12.2.6-13.5.7L0 17.1v4.3c27.2-1 57.3-2.5 64-2.5 4 0 28.1-.9 52-1.8 5.3.2 10.1.3 14.1.4 18.9.5 37.2 1.2 56.6 2 9.9.4 20.2.8 30.6 1.2 28.2 1 148.4 4.6 182.7 6.1v-2.3c-42.2-1.7-146.6-4.8-172.8-5.7z"/></svg>