<svg id="Layer_1" xmlns="http://www.w3.org/2000/svg" viewBox="0 0 59.6 50"><style>.st0{fill:#85a05f}</style><path class="st0" d="M41.6 12.6c-5.1-.2-10 1.7-13.6 5.1-3.6 3.5-5.7 8.2-5.8 13.4-.1 4.8 1.7 9.5 5.1 13 3.4 3.6 7.9 5.6 12.9 5.8h.8c4.7 0 9.2-1.8 12.7-5 3.7-3.5 5.8-8.2 6-13.3.2-9.9-8.1-18.7-18.1-19zm-12.3 6.5c3.1-3 7.3-4.6 11.7-4.6h.5c6.8.2 12.6 4.7 15 10.7-7.1.2-12-1.5-14.8-2.9-3.1-1.6-4.5-3.3-4.5-3.3-.2-.2-.5-.4-.8-.4s-.6.2-.8.4c-2.8 3.6-5.6 5.2-7.5 6-1.4.5-2.5.7-3.1.7.9-2.5 2.4-4.7 4.3-6.6zm28.4 12.5c-.1 4.6-2 8.9-5.4 12-3.3 3.1-7.6 4.7-12.1 4.5-4.4-.2-8.6-2-11.6-5.3-3-3.2-4.6-7.3-4.6-11.7 0-1.2.2-2.3.4-3.4H24.7c1.1 0 6.5-.4 11.8-6.6.8.7 2.2 1.8 4.2 2.8 5.6 2.9 11.8 3.4 16.1 3.2.2 0 .3-.1.5-.1.3 1.6.5 3.1.4 4.6z"/><path class="st0" d="M25 19.5c1.3-.4 2.5-3.1 2.6-4.9.2.1.5.2.8.2 1 0 1.9-.8 1.9-1.8v-.3c1.6.6 4.7.6 5.8-.5 1.9-1.9-1-6.5-3.5-5.9-1.5.3-3.1 3.4-3.3 5-.2-.1-.5-.2-.8-.2-1 0-1.9.8-1.9 1.8-1.6-.4-4.8-.1-5.8 1.1-1.7 2.1 1.8 6.3 4.2 5.5z"/><path class="st0" d="M17.4 15l-.3-.9c-.8-2.1-1.3-3.9.2-5 1.2-.8 3.2.4 3.9 1 .4.3 1.3.9 2.5 1.2 1.3.3 2.4.1 3.3-.6 1.4-1.1 1.9-3.1 1.3-5.1-.9-3.1-4.1-5.2-8.6-5.6-2.2-.2-4.5.5-6.5 2.1-1.6 1.3-2.8 3-3.2 4.4-.4 2.5-.2 6.5 0 9.4 0 .4.1.8.1 1.1 0 .5.1 1 .2 1.6.3 2.6.7 7-.9 8.1-2 1.4-3.8.4-7.2-1.9L0 23.4l.9 2.4c.1.3 3.2 8.4 8.3 9.7.5.1.9.2 1.4.2 1.5 0 3.1-.7 4.6-2 6.5-5.6 4.1-12.9 2.6-17.7-.1-.3-.3-.7-.4-1zm-3.2 17.5c-1.6 1.3-3.1 1.8-4.6 1.4-2.2-.6-4-2.9-5.2-4.7-.3-.5-.6-1.1-.9-1.6 2.2 1.3 4.4 2 6.7.4 2.4-1.7 2-6.3 1.6-9.6-.1-.6-.1-1.1-.1-1.6 0-.3 0-.7-.1-1.1-.2-2.7-.4-6.7.1-8.9.4-1.8 3.7-5.7 8-5.2 3.8.4 6.5 2 7.2 4.5.4 1.3.1 2.7-.8 3.4-1.4 1.1-3.6-.5-3.9-.7-.3-.3-3.5-2.6-5.8-1-2.8 1.8-1.5 5.1-.8 6.9.1.3.2.6.3.8.1.3.2.7.3 1 1.5 4.7 3.6 11.1-2 16zM34.5 32c1.1 0 2-.9 2-2s-.9-2-2-2-2 .9-2 1.9c0 1.2.9 2.1 2 2.1zM48.6 38.3s-3.3 3.1-7.6 3-7.7-3.1-7.7-3.2c-.4-.3-1-.3-1.3 0-.3.4-.3 1 0 1.3.2.1 3.9 3.6 8.9 3.7h.1c5 0 8.6-3.4 8.8-3.5.4-.4.4-.9 0-1.3-.3-.4-.9-.4-1.2 0zM47 32c1.1 0 2-.9 2-2s-.9-2-2-2-2 .9-2 1.9c0 1.2.8 2.1 2 2.1z"/></svg>