<svg id="Layer_1" xmlns="http://www.w3.org/2000/svg" viewBox="0 0 49.9 50"><style>.st0{fill:#85a05f}</style><path class="st0" d="M49.4 31.6c-.1-.4-.5-.9-.9-1-1.4-.7-1.8-1.5-1.6-2.8 1-.1 1.7-.6 2.1-1.5 1.2-2.7 1.3-5 .2-7.1-.1-.2-.2-.5-.2-.8v-1.7c0-.8 0-1.7-.1-2.5v-1.1c0-1.3-.1-2.7-.6-3.9-.7-1.5-1.8-2.9-3.3-4-2.9-2.2-6.4-3.8-10.9-5-.8-.2-1.6-.2-2.4-.1C26.8 1 21.6 2 16.4 3.2c-2.9.6-5.9 1.3-8.8 2-1.8.4-3.7.8-5.5 1.2-1.3.3-1.9 1-2 2.2v1.3c0 1.8-.1 3.6 0 5.4v.1c.1 1.3.1 2.9.9 3.9.9 1.1.9 2.1 1 3.2.1 1 .4 1.8 1.1 2.3.7.6 1.7.8 2.8.7.3 0 .7.2 1 .4 1.3 1.1 2.6 1.4 3.9 1 .5.9 1.4 1.9 2.9 1.5.5-.2.8 0 1.2.3 1.3 1.3 2.7 1.5 4 .5.7 1.2 1.7 2 3 2.7.5.2 1 .4 1.6 0 .4-.3.9-.6 1.4-.9.2-.1.3-.2.5-.3 1 .6 2.1.7 3.2.8.2 0 .5 0 .7.1h1.1c.8-.1 1.6-.2 2.2.7.1.2.3.2.6.2h.2l2.2.6c-.1 0-.1.1-.2.1-.3.1-.6.3-.8.2-1.6-.6-3.3-.4-4.9-.1-.4.1-.8.2-1.2.4-.2.1-.4.2-.6.2l-.2-.1c-.3-.2-.6-.5-1-.7-1.1-.8-2.1-.8-3.2 0-.1.1-.2.2-.3.2l-.7-.1c-.5-.1-1-.1-1.5-.2h-.1c-.1 0-.3 0-.4-.1-.7-.8-1.7-1.1-2.8-1.1-.6-1.1-1.3-2.1-2.8-1.8-.6.1-.9-.1-1.2-.4-.9-.9-1.9-1.1-3.1-.8-.7-.9-1.5-1.6-2.6-1.2-.6.2-1 0-1.4-.3l-.2-.2c-.2-.1-.3-.2-.4-.3-.7-.6-1.5-.8-2.2-.7-.7.1-1.3.6-1.8 1.4 0 0 0 .1-.1.1-.1.1-.2.3-.2.3-1.2 0-1.4 1-1.5 1.6-.4 2.5-.2 5 0 7.3 0 .3 0 .6.1.8.1 2.3 1.2 3.8 3.2 4.9 9.5 5 18.8 7.4 28.2 7.4 1.9 0 3.7-.1 5.6-.3 2.9-.3 5.6-.9 8-1.9 2.2-.9 3.5-2.5 3.7-4.7.1-1 .1-2 .2-3 0-.5 0-1 .1-1.5v-.1c0-.2 0-.4.1-.6.7-1.8.8-3.7 0-6.2zm-22.2 5.9c-.2.7-.3 1.3-.6 1.9-.2.4-.4.7-.7.8-.3.1-.6-.1-1-.4-.9-.7-1.3-1.7-1.1-2.9v-.4c0-.3 0-.6.1-.8.2-.5.5-.9.9-1.2.1-.1.2-.1.3-.1.2 0 .4.1.6.3.1.1.3.2.5.3s.4.3.6.5.3.4.5.7c.1.1.1.2.2.3-.2.4-.3.7-.3 1zm6.9.3c0 .3-.1.5-.1.8-.1.8-.6 1.3-1.3 1.4-.9.2-1.6 0-2.1-.6-.9-1-1.2-2.3-1.1-3.8 0-.2.3-.4.4-.4.9-.1 1.7-.2 2.5-.2h.5c.2 0 .6.3.7.6.2.4.3.9.3 1.3 0 .2.1.3.1.5.1.1.1.3.1.4zM4.4 23.5c-.4-.2-.6-.7-.6-1.3-.1-.9.3-1.9 1-2.7.7-.8 1.7-1.2 2.6-1.2 2.2.1 3.5 1.3 3.7 3.4l-.3.9c-.2.7-.4 1.4-.7 2-.1.3-.2.4-.4.5-.3.1-.6 0-.8-.1-.3-.1-.5-.3-.8-.6-.7-.6-1.3-.9-2-.9-.3 0-.5 0-.8.1-.4.2-.7.1-.9-.1zm6.5 8c.1-.3.2-.7.4-.7.1 0 .4.1.6.2.1 0 .2.1.3.1s.1.1.2.2c.6.7 1.4 1 2.3.8.5-.1.7 0 .9.6.3.7.2 1.7-.3 2.4-.5.8-1.4 1.3-2.2 1.3-1.5 0-2.6-.9-2.7-2.1 0-.3 0-.6.1-.9v-.1c.1-.5.2-1.1.4-1.6v-.2zm8 2.8c.1.1.3.2.4.3l.2.1c.4.2.9.3 1.4.3.7 0 1 .2 1.1.8.1.5-.1 1.2-.6 1.7s-1.1.8-1.6.8c-1.1 0-2.5-.4-2.5-2.1.1-.2.1-.4.2-.5.1-.4.3-.9.4-1.3.1-.2.2-.4.3-.4.2-.1.4.1.6.2-.1 0 0 0 .1.1zm3.2 4.9c.7 1.5 1.7 2.4 3.1 2.7 1.3.3 2.3-.4 3.3-2.1.7 1 1.7 2 3.2 2.1s2.7-.5 3.5-1.7c.7.8 1.5 1.6 2.7 1.6s2.2-.4 3-1.4c.6.5 1.6 1.1 2.8.7 1-.3 1.7-.9 2.4-1.9.1-.1.3-.2.6-.2.1 0 .2 0 .3-.1v.8c0 1.6.1 3.2-.6 4.6-.4.9-1.1 1.5-2 1.7-.6.1-1.1.3-1.7.5-1.9.5-3.8 1.1-5.7 1.3-10.5 1.3-21.1-.8-32.4-6.5-1.8-.9-2.6-2.2-2.6-4.4 0-.6 0-1.1-.1-1.7v-.5c2.5 2 4.2 2.2 6.8.8.5 1.3 1.5 2.1 2.9 2.5s2.7.2 3.9-.6c.5 1.3 1.4 2.2 2.8 2.6 1.4.4 2.6.1 3.8-.8zm10.3-12c-.1-1.5.1-3 .8-4.4.5-1 1.1-1.4 2.1-1.4h.5c1.4.2 2.1.8 2.3 2 .3 2 .5 4.1.6 6 0 .2-.3.5-.5.6-1.7.7-3.5.7-5.2 0-.3-.1-.5-.7-.6-1.1-.1-.3-.1-.7 0-1.1v-.6zm-6.2 1.1c.1-.3.1-.6.2-.9.2-1 .3-2 .7-2.9.2-.6.6-1 1.1-1.1h.1c.5 0 .9.3 1.3.9 1 1.5 1.2 3.2.7 5.5-.3 0-.6-.1-.9-.1l-2.4-.3c-.3 0-.6-.2-.7-.4-.1-.2-.2-.4-.1-.7zm-.4-5.6c-.7-1.4-1.8-2.2-3-2.3h-.2c-1.1 0-2.1.6-2.9 1.7-.7-1.1-1.7-1.8-3.1-2.2-1.3-.3-2.6-.2-3.7.5-.8-2.1-2.2-3.4-3.9-3.8-1.9-.4-4.1.4-6.1 2.2-.1-.1-.1-.2-.2-.3-.2-.3-.4-.6-.4-1-.6-2.5-.6-5.1-.5-7.7 3.4 2.7 7.6 4.6 13.2 6 5.4 1.4 11.3 2.1 18 2.2 3 .1 6.1.1 9.2-.8 1-.3 1.9-.8 2.9-1.2l1.2-.6.6-.3s.1 0 .1-.1v2.6c-1.1 0-1.8.7-2.3 1.9-1-.7-2.1-.9-3.2-.8-1.1.2-1.9.8-2.6 2-1.3-1.2-2.8-1.6-4.6-1.3-1.8.3-2.6 1.7-3.2 3.2-.2-.1-.5-.2-.7-.4-.6-.3-1.3-.7-2-.8-1.1-.2-1.9.5-2.6 1.3zm-13.6 2.4c.1-.8.4-1.5.7-2 .6-1.2 2-1.6 3.6-1.2 1.3.4 2 1.3 2.1 2.8-.1.3-.2.6-.3.8-.2.7-.4 1.4-.7 2.1-.1.2-.2.3-.3.4-.2.1-.4 0-.6-.1-.3-.2-.6-.5-.9-.8h-.1c-.5-.4-1-.6-1.6-.6h-.5c-.4.1-.9 0-1.2-.3-.2-.3-.3-.7-.2-1.1zm33.3-11.4c-1.8 1.5-3.9 1.9-5.5 2.1-3.3.5-6.9.5-11.5.1-4.3-.3-9.3-.9-14.3-2.3-3.8-1.1-7-2.5-9.8-4.3-.3-.2-.7-.5-1-.8-.2-.1-.3-.2-.4-.3.8-.2 1.6-.4 2.4-.5 2-.4 3.8-.8 5.7-1.2 7.5-1.7 14.8-3.2 21-4.5.3-.1.7-.1 1-.1 3.8 1.1 7.8 2.4 11.2 5.2.8.6 1.5 1.5 2.1 2.6.8 1.5.5 2.8-.9 4zm1.6 11.8c-.1-.3-.1-.7-.2-1-.2-1-.4-2-.5-3 0-.3 0-.7.2-1.1.1-.2.3-.5.4-.5.1 0 .2.1.6.4.1.1.2.3.2.5.3 1.5.2 3-.7 4.7zm-2.2 1.6c.1 1.1-.4 1.7-1.5 2-.7.2-1.4.3-2.1.5-.2 0-.3 0-.4-.1-.1-.1-.2-.2-.2-.5-.1-.8-.1-1.5-.2-2.2-.1-1-.2-2.1-.3-3.2-.1-1 .3-1.9 1-2.7.3-.3.6-.4 1.1-.4h.2c.5.1 1 .3 1.2.7.5.8.8 1.8 1 2.8v.1c.1.4.1.8.1 1.2V26.2c0 .5 0 .7.1.9zM40 31.4c1.8.6 3.4-.1 4.6-.7.3-.1.5-.2.6-.1.1 0 .3.2.4.4-.2.1-.4.3-.6.4-.5.4-.9.7-1.6.7-.6 0-1.1.2-1.7.5l-.9.3c-.3.1-.7.1-.9 0-.4-.2-.9-.4-1.3-.6-.1 0-.2-.1-.3-.1.1 0 .1-.1.2-.1.4-.2.8-.4 1.1-.5.2-.2.4-.3.4-.2zm4.8 5.8c-.2.5-.3 1.1-.6 1.5-.3.5-.8.9-1.5.6-.7-.3-.9-.9-.9-1.4 0-.4-.1-.8-.1-1.2-.1-.5-.1-1-.1-1.5 0-.2.2-.4.3-.6.1-.1.3-.1.5-.2h.2c.2-.1.4-.1.6-.2.5-.2.8-.3 1-.3h.2c.2.1.4.8.5 1.9V36.5h.1c-.1.4-.2.5-.2.7zM39.6 36c.1.9.1 1.9-.1 3.1-.1.6-.6 1-1.3 1-.6 0-1.1-.2-1.4-.8-.7-1.1-.9-2.4-.8-4 0-.1.2-.3.4-.4.4-.1.8-.1 1.1-.2.2 0 .3 0 .5-.1 1.3.1 1.5.2 1.6 1.4zm7.2.3c-.2-1-.4-1.9-.6-2.9 0-.2.1-.5.3-.6.2-.2.5-.3.8-.4.1 0 .2-.1.3-.1.5 1.5.5 2.8.2 4.1-.2.6-.4.9-.8.9-.1-.4-.2-.7-.2-1zm-26.5-9.8c.2-1.1.7-2.3 1.3-3.5.2-.4.6-.7 1-.7s.8.3 1.1.7c.3.6.5 1.2.6 1.9.1.2.1.5.2.7h-.1v.1c0 .3 0 .5-.1.8 0 .6-.1 1.2-.2 1.8-.1.7-.6 1.3-1.4 1.7-.1.1-.3 0-.5-.1-1.6-.6-2.2-1.8-1.9-3.4zM8.4 33c-.8 1.2-1.8 1.6-3.1 1.4-1.6-.3-2.5-1.2-2.7-3 .1-.3.2-.6.3-.8.2-.7.4-1.3.7-2 .1-.2.2-.4.4-.4.2-.1.5.1.7.2.3.2.5.4.7.6.7.7 1.5.9 2.4.6.5-.2.7 0 1 .5.4.8.3 1.8-.4 2.9z"/></svg>