<svg id="Layer_1" data-name="Layer 1" xmlns="http://www.w3.org/2000/svg" viewBox="0 0 543.25 179.01"><defs><style>.cls-1{fill:#539536;}.cls-2{fill:#fff;}</style></defs><title>logo</title><path class="cls-1" d="M56.93,2.8a22.15,22.15,0,0,0,1.25,3.74C60.87,12.42,65.74,31.3,70.32,50c1.89-16.77,3.81-32.84,4.89-38.2A70.76,70.76,0,0,0,76.25,0,82.56,82.56,0,0,0,56.93,2.8Z" transform="translate(0 0)"/><path class="cls-1" d="M80.76,1.07h0c0,0.17,0,.42-0.08,1a98.89,98.89,0,0,1-1.63,13.15c-1.13,5.64-3.56,26.92-5.79,46.94C76.34,74.88,79,86.09,80.38,91.07c3.46,12.39,7.77,28.44,10.49,42.63a66.58,66.58,0,0,0,3,9.83c1,2.68,5.2,17.92,7.95,28.77,0.43-2.89.73-5.08,0.79-6.1,0.21-3.43,5.75-39.48,6.6-43.94,0.69-3.66,1.41-7.44,1.82-10.85,1.94-15.78,4.64-33.54,6.79-47.25,2.34-15,4.63-27.24,7.45-39.65A93.12,93.12,0,0,0,126.91,11C109.09,0.33,82.72.09,82.72,0.09,82,0,81.29,0,80.53,0A7.26,7.26,0,0,1,80.76,1.07Z" transform="translate(0 0)"/><path class="cls-1" d="M34.69,60.86c3.15,14.1,7.07,32.33,9.41,48.42a81.72,81.72,0,0,0,2.8,11.17c1.37,4.62,9.41,41.65,9.41,45.09a15.84,15.84,0,0,0,.25,2.25c1.13-9.51,2.45-19.89,2.8-22.05,0.53-3.27,1.08-6.65,1.34-9.62,1.21-13.83,3.12-29.52,4.65-41.65,0.39-3.16,1-8.86,1.8-15.86C61.43,55,52.71,18.26,49.23,10.6A40.59,40.59,0,0,1,47.51,6,64.84,64.84,0,0,0,24,22.87l-0.25.29A283.86,283.86,0,0,1,34.69,60.86Z" transform="translate(0 0)"/><path class="cls-1" d="M154,81.73c-0.52-19.42-3.59-50.32-20.48-65.82-0.75-.69-1.54-1.34-2.36-2,0,0.19,0,.44-0.09.83a133,133,0,0,1-2.3,14.88c-2.51,11.16-5.2,25.63-7.57,40.76-0.82,5.2-1.67,10.33-2.53,15.28-1.65,9.66-3.19,18.8-4.36,28.38-1.8,14.61-7.06,49.62-7.06,49.62-0.15,1.3-1.15,8.08-2,13.63,27.46-5.55,40.24-23.33,44.86-32.76C155.29,134.13,154.53,101.14,154,81.73Z" transform="translate(0 0)"/><path class="cls-1" d="M82.7,135.59c-1.65-8.64-4.22-16.9-7-25.66-1.41-4.48-2.85-9.12-4.18-13.82-0.39-1.38-.88-3.28-1.45-5.54-0.4,3.49-.73,6.35-1,8.24-0.58,4.62-1.22,9.16-1.85,13.57-1.2,8.58-2.35,16.69-3.08,25.08-0.84,9.45-3.06,28.77-4.17,38.23a112.46,112.46,0,0,0,33.1,3.15C91.48,172.45,84.9,147,82.7,135.59Z" transform="translate(0 0)"/><path class="cls-1" d="M45.4,161.92S37.87,126,35.69,111.1c-1.42-9.78-3.81-19.2-6.35-29.17-1.3-5.1-2.64-10.38-3.85-15.74-2.65-11.86-5.81-23.38-9.12-33.35-14,21-20.74,49.6-13.31,88.73,4.94,26,23.15,41.76,44.21,50C46.37,167.16,45.53,162.92,45.4,161.92Z" transform="translate(0 0)"/><path class="cls-2" d="M483.16,86.1a40.71,40.71,0,0,1-5.1.68c-2,.15-4.08.27-6.28,0.36s-4.47.14-6.79,0.14h-5.93c-0.05-1.1-.09-2.62-0.12-4.64q0-3.38,0-8.58V65c0-1,0-1.77,0-2.4,0-.47,0-0.91,0-1.33l3.95,0,5.94,0.09c2.12,0,4.23.11,6.28,0.23l2,0.12a3.78,3.78,0,0,0,2.67-1.08c1.21-1.55,1.5-5.16,1.5-5.16l-0.64.06q-2,.19-4.23.32l-4.88.27q-2.64.14-5.83,0.23c-2,.06-4.25.09-6.72,0.09q0-1.7,0-4.64,0-3.37,0-6.94c0-2.24,0-4.27.14-6s0.16-3.33.21-5.12c2.75,0,5.17.05,7.18,0.14s4.09,0.19,5.88.32l5.11,0.37,1.86,0.13a3.59,3.59,0,0,0,2.65-1c1.1-1.33,1.18-3.58,1.34-4.59l0.12-.6-0.61,0q-4.11.18-8.13,0.32c-5.28.18-10.93,0.18-16.26,0q-4.06-.14-8.17-0.32l-0.52,0,0,0.53q0.28,5.84.5,11.68c0.15,4,.23,7.94.23,11.85V68.31c0,3.91-.08,7.89-0.23,11.8Q450,85.54,449.75,91a1.57,1.57,0,0,0,.37,1,1.17,1.17,0,0,0,.67.24h0.48c2.43-.09,4.86-0.16,7.24-0.16h16.57c1.1,0,3.15,0,3.15,0A5.71,5.71,0,0,0,482,90.57a12.92,12.92,0,0,0,1.92-4.63Z" transform="translate(0 0)"/><path class="cls-2" d="M282,28.37s-2.56-.24-4-0.24a28.05,28.05,0,0,0-3.55.34l-0.11.47c-0.3,1.32-.87,3.4-1.68,6.18s-1.77,6-2.83,9.54-2.19,7.31-3.38,11.23-2.34,7.67-3.47,11.22-2.13,6.76-3,9.59q-1,3.21-1.61,5.14-0.75-2.17-1.86-5.47-1.42-4.19-3.15-9.4T249.75,56.1c-1.2-3.64-2.39-7.31-3.51-10.9s-2.08-6.68-3-9.54-1.53-5.09-2-6.74l-0.12-.46a17.12,17.12,0,0,0-6.73,0l-0.11.47c-0.36,1.49-1,3.68-1.82,6.5s-1.83,6-2.92,9.4S227.3,52,226.06,55.64s-2.49,7.41-3.65,10.92-2.22,6.69-3.2,9.59l-1.91,5.68q-2.52-8-4.52-14.44-2.15-6.89-4-13.15c-1.22-4.09-2.4-8.23-3.51-12.32-1.07-3.92-2.2-8.3-3.38-13l-0.06-.23-0.23-.09a24.76,24.76,0,0,0-4.75-.47,21.42,21.42,0,0,0-4.77.48l-0.4.19,0.16,0.42c0.62,1.62,1.46,4.07,2.5,7.28s2.24,7,3.52,11.09q1.74,5.6,3.63,11.72l4.4,14.25q1.92,6.21,3.43,11.14t2.24,7.21l0.09,0.28a23.06,23.06,0,0,0,3.56.35,23.49,23.49,0,0,0,3.56-.35l0.1-.28q1.37-4,3-8.94t3.38-10q1.74-5.11,3.47-10.13L232,53.4q1.51-4.38,2.74-7.9l1.6-4.57c2.94,8.67,5.73,17.23,8.31,25.46,2.64,8.44,5.37,17,8.13,25.52l0.12,0.38s2.13,0.27,3.41.27a34.28,34.28,0,0,0,3.46-.27l0.13-.35c0.56-1.49,1.4-3.9,2.51-7.18s2.41-7.06,3.84-11.23,2.92-8.57,4.48-13.2,3-9,4.47-13.14,2.72-7.82,3.88-11,2-5.51,2.64-6.91Z" transform="translate(0 0)"/><path class="cls-2" d="M335.58,85.19q-1.87-4.2-4.2-9.54t-5-11.55q-2.65-6.21-5.3-12.51T315.9,39.13l-4.73-11.42L311,27.37c-0.43-.6-2-0.64-2.37,0l-0.13.29c-4.68,10.73-9.44,21.54-14.15,32.14S284.78,81.17,280,91.56l-0.36.78s2.54,0.18,4,.18a31.38,31.38,0,0,0,3.9-.23l0.11-.39c0.79-2.79,2-6.36,3.55-10.6s3.28-8.64,5.17-13.26q2.67-.08,5.25-0.13c3.77-.06,7.69-0.06,11.58,0q2.85,0,5.61.13,1.14,2.88,2.44,6.06l2.69,6.57c0.88,2.15,1.69,4.23,2.41,6.19s1.29,3.62,1.73,5l0.12,0.39s2.94,0.26,5.19.26,5.7-.18,5.7-0.18l-0.46-.84C337.83,90.07,336.8,87.94,335.58,85.19ZM317.11,62.92c-1.46,0-2.93.09-4.4,0.11-3.28.06-6.5,0.08-10,0-1.44-.05-2.85-0.08-4.22-0.09l9.23-21.51Z" transform="translate(0 0)"/><path class="cls-2" d="M424.72,74.15C419.89,68.62,415,63,410.07,57.53c1.58-1.8,3.56-3.92,5.87-6.28s5-5.08,7.75-7.71,5.43-5.2,8.08-7.66,5.11-4.68,7.2-6.47l1.31-1.12s-4.18-.13-5.92-0.13a30.58,30.58,0,0,0-4,.37l-0.18.2q-3.2,3.65-6.67,7.53c-2.31,2.59-4.67,5.15-7,7.61s-4.73,4.89-7.07,7.2-4.58,4.38-6.7,6.19a2.89,2.89,0,0,1-1,.71,0.56,0.56,0,0,1,0-.26v-5c0-4,.08-8,0.23-11.81s0.32-7.8.5-11.82l0-.58a38,38,0,0,0-10,0l0,0.58q0.27,6,.5,11.82c0.15,3.86.23,7.83,0.23,11.81V68.4c0,4-.08,8-0.23,11.85s-0.32,7.73-.5,11.49l0,0.55s3.45,0.25,5,.25,5-.25,5-0.25l0-.55q-0.28-5.65-.5-11.49c-0.15-3.83-.23-7.82-0.23-11.85v-8a2.6,2.6,0,0,1,.73.58c1,1,2.48,2.67,4.5,5s4.32,5.11,6.85,8.13,5.11,6.13,7.76,9.35,5.09,6.11,7.27,8.59L429,92.28s3.64,0.26,5.39.26,6.52-.13,6.52-0.13l-0.87-1C434.8,85.63,429.65,79.8,424.72,74.15Z" transform="translate(0 0)"/><path class="cls-2" d="M538.89,87.72c-1.4-1.65-2.91-3.47-4.47-5.42s-3.23-4-4.93-6.21l-4.93-6.21q-2.38-3-4.29-5.43-1.5-1.93-2.5-3.19a32.81,32.81,0,0,0,5.16-1.4,24.22,24.22,0,0,0,6.19-3.26A18.85,18.85,0,0,0,534,51.26a14.48,14.48,0,0,0,2-7.79,14.63,14.63,0,0,0-1.57-7.08,12.74,12.74,0,0,0-4.27-4.6A18.3,18.3,0,0,0,524,29.3a44.19,44.19,0,0,0-12.65-.51,74.34,74.34,0,0,1-10.34.09q-2.56-.13-5.2-0.32l-0.54,0,0,0.54q0.28,6,.5,11.82c0.15,3.88.23,7.85,0.23,11.81V68.4c0,4-.08,7.94-0.23,11.85s-0.32,7.73-.5,11.49l0,0.55s3.45,0.19,5,.19,5-.19,5-0.19l0-.55q-0.27-5.65-.5-11.49c-0.15-3.85-.23-7.84-0.23-11.85V62.21h2.78c1.9,2,4,4.38,6.27,7.17s4.69,5.87,6.89,8.71,4.34,5.71,6.16,8.21,3.24,4.47,4.15,5.74l0.17,0.24,5.66,0.24,6.68-.09-1-1C541.4,90.6,540.31,89.38,538.89,87.72ZM521.37,55.07a16.63,16.63,0,0,1-5.45,2.18,28.52,28.52,0,0,1-5.79.63c-1.26,0-2.33,0-3.3-.09a19,19,0,0,1-2.33-.28V52.69c0-3.33.06-6.64,0.18-9.85L505,33.31c0.9-.1,1.95-0.19,3.13-0.27,1.37-.09,3.14-0.14,5.26-0.14a24,24,0,0,1,4.74.49,12.58,12.58,0,0,1,4.4,1.81,10.11,10.11,0,0,1,3.27,3.53,11.41,11.41,0,0,1,1.26,5.65,12.21,12.21,0,0,1-1.61,6.55A12.87,12.87,0,0,1,521.37,55.07Zm9.54,37.21s3.72,0.24,5.66.24,6.68-.09,6.68-0.09" transform="translate(0 0)"/><path class="cls-2" d="M377.14,92.11a5.71,5.71,0,0,0,3.79-1.54,6.84,6.84,0,0,0,1.59-3.21c0.13-.45.35-1.36,0.35-1.36l-0.72.1a117.63,117.63,0,0,1-12.73,1c-3.76.09-7.77,0.13-11.93,0.14q-0.09-6.49-.18-14.64c-0.06-5.53-.09-12.24-0.09-19.95,0-4,.08-8,0.23-11.81s0.32-7.8.5-11.82l0-.58s-3-.35-5-0.35-5,.35-5,0.35l0,0.58q0.27,6,.5,11.82c0.15,3.82.23,7.79,0.23,11.81V68.4c0,4-.08,8-0.23,11.85q-0.22,5.54-.48,10.91a1.45,1.45,0,0,0,.35.84,0.91,0.91,0,0,0,.64.24c2.72-.11,5.38-0.17,7.91-0.17h16.85c1.17,0,2.35.06,3.53,0.08Z" transform="translate(0 0)"/><path class="cls-2" d="M198.06,123.21h9.77c8.85,0,15,6.07,15,14v0.08c0,7.92-6.11,14.08-15,14.08h-9.77V123.21Zm9.77,25.22c7.12,0,11.66-4.83,11.66-11.06v-0.08c0-6.23-4.55-11.14-11.66-11.14h-6.6v22.28h6.6Z" transform="translate(0 0)"/><path class="cls-2" d="M234.62,123.21H255v2.9H237.8v9.61h15.37v2.9H237.8v9.86h17.38v2.9H234.62V123.21Z" transform="translate(0 0)"/><path class="cls-2" d="M266.67,123.21h3l17.74,22.57V123.21h3.1v28.16h-2.54l-18.18-23.09v23.09h-3.09V123.21Z" transform="translate(0 0)"/><path class="cls-2" d="M311,126.15h-9.45v-2.94h22.12v2.94h-9.45v25.22H311V126.15Z" transform="translate(0 0)"/><path class="cls-2" d="M341.51,123h3l12.83,28.36H353.9l-3.3-7.44H335.28l-3.34,7.44h-3.26Zm7.84,18.06L343,126.71l-6.44,14.36h12.83Z" transform="translate(0 0)"/><path class="cls-2" d="M368,123.21h3.18v25.22H387v2.94H368V123.21Z" transform="translate(0 0)"/><path class="cls-2" d="M417.74,126.15h-9.45v-2.94h22.12v2.94H421v25.22h-3.22V126.15Z" transform="translate(0 0)"/><path class="cls-2" d="M441.47,123.21h20.35v2.9H444.65v9.61H460v2.9H444.65v9.86H462v2.9H441.47V123.21Z" transform="translate(0 0)"/><path class="cls-2" d="M483.94,123h3l12.83,28.36h-3.42l-3.3-7.44H477.71l-3.34,7.44h-3.26Zm7.85,18.06-6.4-14.36L479,141.07h12.84Z" transform="translate(0 0)"/><path class="cls-2" d="M510.4,123.21h3.22l10.26,15.37,10.26-15.37h3.22v28.16h-3.18V128.56l-10.26,15.08h-0.16l-10.26-15v22.77h-3.1V123.21Z" transform="translate(0 0)"/></svg>