<svg xmlns="http://www.w3.org/2000/svg" viewBox="0 0 600.4 144.33"><defs><style>.cls-1{isolation:isolate;}.cls-2{fill:#35429b;}.cls-10,.cls-3{fill:none;}.cls-4{opacity:0.8;}.cls-11,.cls-12,.cls-4,.cls-5,.cls-6,.cls-8,.cls-9{mix-blend-mode:multiply;}.cls-5{opacity:0.5;}.cls-11,.cls-12,.cls-13,.cls-6,.cls-8{fill:#231f20;}.cls-6{opacity:0.2;}.cls-7{fill:#c6d3ec;}.cls-8{opacity:0.1;}.cls-9{opacity:0.4;}.cls-10{stroke:#231f20;stroke-miterlimit:10;stroke-width:0.25px;}.cls-11{opacity:0.9;}.cls-12{opacity:0.29;}.cls-14{fill:#1f2367;}</style></defs><title>logo-mobile</title><g class="cls-1"><g id="main"><path class="cls-2" d="M42.08,6.33l1.17,1.42H44V14l-1.58,1.42v1.42l-25,13.08V33.5h3.16V79L28,78.46H67.33l7.83,0.38,0.25-45.42,3-.08V29.58l-25.67-13V15.17L50.83,13.5V7.58h1.33L52.75,6,48.08,3.25,47.5,0,46.92,3.33Zm-6.5,51.1L23.83,58.58V38.92l11.75,0.92v17.6Zm11.25-16.6-1,1v7.42l-1,.08v1h1v1.83l-5,.08v2h1.54v3H39.25v-17h7.58v0.58Zm13.08-.92,11.92-.43V58.25l-11.92-.58V39.92ZM50.33,50.25h1.5v-1H50.67L51,41.58,50.33,41V40.25h6.92v17H54.17l-0.08-3.33h1.83V52.17H50.33V50.25Z" transform="translate(0 0)"/><polygon class="cls-3" points="59.92 57.67 71.83 58.25 71.83 39.49 59.92 39.92 59.92 57.67"/><polygon class="cls-3" points="37.25 57.25 39.25 57.25 42.33 57.25 54.17 57.25 57.25 57.25 57.92 57.25 57.92 35.58 37.25 35.58 37.25 57.25"/><polygon class="cls-3" points="23.83 58.58 35.58 57.58 35.58 39.83 23.83 38.92 23.83 58.58"/><polygon class="cls-4" points="22.08 58.8 23.83 58.58 23.83 38.92 35.58 39.83 35.58 57.43 36.5 57.25 36.5 35.58 22.08 36.92 22.08 58.8"/><polygon class="cls-3" points="23.83 58.58 35.58 57.58 35.58 39.83 23.83 38.92 23.83 58.58"/><polygon class="cls-3" points="59.92 57.67 71.83 58.25 71.83 39.49 59.92 39.92 59.92 57.67"/><polygon class="cls-3" points="39.25 57.25 42.33 57.25 42.33 54.25 40.79 54.25 40.79 52.25 45.83 52.17 45.83 50.33 44.83 50.33 44.83 49.33 45.83 49.25 45.83 41.83 46.83 40.83 46.83 40.25 39.25 40.25 39.25 57.25"/><polygon class="cls-3" points="50.33 41 51 41.58 50.67 49.25 51.83 49.25 51.83 50.25 50.33 50.25 50.33 52.17 55.92 52.17 55.92 53.92 54.08 53.92 54.17 57.25 57.25 57.25 57.25 40.25 50.33 40.25 50.33 41"/><polygon class="cls-4" points="37.25 57.25 39.25 57.25 39.25 40.25 46.83 40.25 46.83 40.83 45.83 41.83 45.83 49.25 44.83 49.33 44.83 50.33 45.83 50.33 45.83 52.17 40.79 52.25 40.79 54.25 42.33 54.25 42.33 57.25 54.17 57.25 54.08 53.92 55.92 53.92 55.92 52.17 50.33 52.17 50.33 50.25 51.83 50.25 51.83 49.25 50.67 49.25 51 41.58 50.33 41 50.33 40.25 57.25 40.25 57.25 57.25 57.92 57.25 57.92 35.58 37.25 35.58 37.25 57.25"/><polygon class="cls-3" points="23.83 58.58 35.58 57.43 35.58 39.83 23.83 38.92 23.83 58.58"/><polygon class="cls-3" points="39.25 57.25 42.33 57.25 42.33 54.25 40.79 54.25 40.79 52.25 45.83 52.17 45.83 50.33 44.83 50.33 44.83 49.33 45.83 49.25 45.83 41.83 46.83 40.83 46.83 40.25 39.25 40.25 39.25 57.25"/><polygon class="cls-3" points="50.33 41 51 41.58 50.67 49.25 51.83 49.25 51.83 50.25 50.33 50.25 50.33 52.17 55.92 52.17 55.92 53.92 54.08 53.92 54.17 57.25 57.25 57.25 57.25 40.25 50.33 40.25 50.33 41"/><polygon class="cls-4" points="59.92 39.92 71.83 39.49 71.83 58.25 74.6 58.58 74.6 36.59 59.92 35.58 59.92 39.92"/><polygon class="cls-3" points="59.92 57.67 71.83 58.25 71.83 39.49 59.92 39.92 59.92 57.67"/><polygon class="cls-5" points="20.58 36.42 20.58 59 22.08 58.8 22.08 36.92 36.5 35.58 36.5 57.25 37.25 57.25 37.25 35.58 57.92 35.58 57.92 34.75 36.25 34.75 20.58 36.42"/><path class="cls-5" d="M52.75,15.17L50.83,13.5V7.58h1.33L52.75,6,48.08,3.25l2.25,2.83-8.25.25,1.17,1.42H44l5.58-.17v6l0.75,1.25v1.5l10,11.42v1.67H34.92l-17.5,1.83V33.5h3.16l1.5-1.33,9.25-.08c0.25,0,2.92-1,2.92-1h2.17l5.08,2.25,17.75-.08V78.46h8.08l7.83,0.38,0.25-45.42,3-.08V29.58l-25.67-13V15.17ZM74.6,58.58l-2.77-.33-11.92-.58V35.58l14.68,1v22Z" transform="translate(0 0)"/><polygon class="cls-6" points="35.92 31.08 35.92 34.75 57.92 34.75 57.92 35.58 57.92 57.25 57.25 57.25 54.17 57.25 42.33 57.25 39.25 57.25 36.5 57.25 36.5 78.46 59.25 78.46 59.25 35.58 59.25 33.25 41.5 33.33 35.92 31.08"/><polygon class="cls-6" points="50.33 14.83 49.58 13.58 49.58 7.58 46.83 7.67 46.83 13.75 46.33 15 46.33 16.25 34.92 28.25 34.92 29.42 60.33 29.42 60.33 27.75 50.33 16.33 50.33 14.83"/><path class="cls-7" d="M95.52,85.58V79.83H89.77L67.33,78.46H65.88v-6c7.75,4,14.42,3.5,22.46,1.13v1.5S84.27,77.82,75.77,79l2.7,0.16s5.95-.68,9.87-3v3.58l1.44,0.09V61.75s-0.81-1-1.44,0v1.38S73.75,66.38,65.88,61V59.88s-1.42-1.08-2.25,0v0.92A73.38,73.38,0,0,1,31,61V60a1.5,1.5,0,0,0-1.83,0v1.29A86.88,86.88,0,0,1,6.95,62.42V61.88a1.4,1.4,0,0,0-2,0v2.62s-1.12,0-1.12.29V80.14l-0.33,0H0v5H2.5c12.53,0,13.17,14.67,13.17,14.67l-4.24,44.5H84.55c-2-21-3.56-37.57-4-42.19C79.21,86.71,95.52,85.58,95.52,85.58ZM65.88,61.88s7.21,5.25,22.46,2v1.21s-7.21,3-13.11,3c0,0.49,0,.63,0,0.67S80.72,69,88.33,65.88v6.71S75.67,78,65.88,71.42V61.88ZM29.17,78.46H28L5.52,80l1.39-.12V76.67a41.79,41.79,0,0,0,13.67,1.79V77.83S12.8,78,6.91,75.92V73.75a38.45,38.45,0,0,0,22.26-.58v5.29Zm0-6.37a35.36,35.36,0,0,1-22.26.83v-6a36.29,36.29,0,0,0,13.67,2.91V69.25S12,69,6.91,66V63s9,1.42,22.26-1.08V72.08Zm34.46,6.38H31v-6s5.83,1.79,16.58,1.79,16-1.79,16-1.79v6Zm0-7.08A69.25,69.25,0,0,1,31,71.71V61.88s16.86,4.08,32.63,0v9.5Z" transform="translate(0 0)"/><path class="cls-8" d="M67.33,81.83H28s6.93,2.75,6.51,17.59c-0.16,5.61-.84,24.09-1.62,44.92H63.7l-1.53-43.67S61.92,88.66,67.33,81.83Z" transform="translate(0 0)"/><path class="cls-9" d="M95.52,85.58V79.83H89.77L67.33,78.46v3.37S62,88.67,62.17,100.67c0.05,3.73.64,21.27,1.42,43.67h21l-4-42.19S78.21,87.77,95.52,85.58Z" transform="translate(0 0)"/><path class="cls-6" d="M11.84,89.39h3.41l1.33,0.73,9.24-.28,0.91-1.68,6-.14a2.48,2.48,0,0,1,.7,1c2.73,1.12,21.42,9.66,21.42,9.66h2.31a10.43,10.43,0,0,0,5,2.31c0-3,.05-11.54,5.17-19.14H28L0,84v1.21S7.94,84,11.84,89.39Z" transform="translate(0 0)"/><path class="cls-10" d="M75.17,78.83" transform="translate(0 0)"/><polygon class="cls-11" points="69.23 128.25 75.18 128.75 75.18 106.7 68.12 106.17 69.23 128.25"/><path class="cls-12" d="M65.88,61V59.88s-1.42-1.08-2.25,0v0.92A73.38,73.38,0,0,1,31,61v0.88s16.86,4.08,32.63,0v9.5A69.25,69.25,0,0,1,31,71.71v0.75s5.83,1.79,16.58,1.79,16-1.79,16-1.79v6h2.25v-6c7.75,4,14.42,3.5,22.46,1.13v-1S75.67,78,65.88,71.42V61.88s7.21,5.25,22.46,2V63.13S73.75,66.38,65.88,61Z" transform="translate(0 0)"/><g class="cls-5"><path class="cls-13" d="M6.91,66.92a36.29,36.29,0,0,0,13.67,2.91V69.25S12,69,6.91,66v0.92Z" transform="translate(0 0)"/><path class="cls-13" d="M6.91,75.92v0.75a41.79,41.79,0,0,0,13.67,1.79V77.83S12.8,78,6.91,75.92Z" transform="translate(0 0)"/><path class="cls-13" d="M78.47,79.14s5.95-.68,9.87-3V75.08S84.27,77.82,75.77,79Z" transform="translate(0 0)"/><path class="cls-13" d="M75.22,68.75S80.72,69,88.33,65.88V65.13s-7.21,3-13.11,3C75.23,68.57,75.22,68.71,75.22,68.75Z" transform="translate(0 0)"/></g><path class="cls-14" d="M122.23,25.79h23.39l36.18,71h0.27v-71H200.3v94.93H177l-36.31-71h-0.27v71H122.23V25.79Z" transform="translate(0 0)"/><path class="cls-14" d="M211.72,25.79h20l17.68,75.89h0.27l16.18-75.89h25.84l16.73,75.89h0.27L326.5,25.79H345l-24.75,94.93H295.77L278.63,44.83h-0.27l-16.86,75.89H236.88Z" transform="translate(0 0)"/><path class="cls-14" d="M426.46,119.36a96.31,96.31,0,0,1-21.62,3c-30.74,0-52.09-15.37-52.09-47.46,0-32.5,19.86-50.73,52.09-50.73a62.72,62.72,0,0,1,21.49,3.94l-1.36,16c-7.21-4.08-13.74-5-20.54-5-19.58,0-31.82,15-31.82,34.41s12,33.86,32.23,33.86c7.48,0,16.32-1.63,20.81-3.94Z" transform="translate(0 0)"/><path class="cls-14" d="M509.56,119.36a96.31,96.31,0,0,1-21.62,3c-30.74,0-52.09-15.37-52.09-47.46,0-32.5,19.86-50.73,52.09-50.73a62.72,62.72,0,0,1,21.49,3.94l-1.36,16c-7.21-4.08-13.74-5-20.54-5-19.58,0-31.82,15-31.82,34.41s12,33.86,32.23,33.86c7.48,0,16.32-1.63,20.81-3.94Z" transform="translate(0 0)"/><path class="cls-14" d="M522.88,25.79h19V80.6c0,16.18,5.17,26.79,19.72,26.79s19.72-10.61,19.72-26.79V25.79h19V86.44c0,25.43-14.42,35.9-38.76,35.9s-38.76-10.47-38.76-35.9V25.79Z" transform="translate(0 0)"/></g></g></svg>