<svg id="Layer_1" data-name="Layer 1" xmlns="http://www.w3.org/2000/svg" viewBox="0 0 360 67.17"><defs><style>.cls-1{fill:#fff;}</style></defs><title>logo</title><path class="cls-1" d="M20.88,24.32c2.27,0,6.59-1.46,6.59-7s-4.32-7-6.59-7h-9.6V24.32h9.6ZM0,0H21.54C29.3,0,38.75,6.08,38.75,17.29A17.43,17.43,0,0,1,21.54,34.58H11.28V51.06H0V0Z"/><polygon class="cls-1" points="41.83 22.71 52.74 22.71 52.74 19.19 52.74 33.04 52.74 51.06 41.83 51.06 41.83 22.71"/><path class="cls-1" d="M85.24,42.27a9.67,9.67,0,1,0-9.6-9.67,9.55,9.55,0,0,0,9.6,9.67m0-29.23c11.35,0,20.51,8.64,20.51,19.56S96.59,52.15,85.24,52.15,64.73,43.51,64.73,32.6,73.81,13,85.24,13"/><path class="cls-1" d="M131.39,41.83a9.23,9.23,0,1,0,0-18.46,9.24,9.24,0,1,0,0,18.46M111.46,14.14h10.92V19c1-3.15,5.35-5.49,11-5.49,10.47,0,18.31,8.42,18.31,19.12s-7.84,19.12-18.31,19.12c-5.64,0-10-2.27-11-5.5v19H111.46V14.14Z"/><path class="cls-1" d="M176,41.83a9.24,9.24,0,1,0,0-18.46,9.23,9.23,0,1,0,0,18.46m-2-28.35c5.64,0,10,2.27,11,5.49V14.14h10.92v24c0,3,.8,4.1,2.71,4.1a15.6,15.6,0,0,0,1.83-.14v9.08a18.34,18.34,0,0,1-4.9.59,12.39,12.39,0,0,1-6-1.32,7.3,7.3,0,0,1-3.3-4c-2.13,3.15-5.79,5.35-12.23,5.35-10.47,0-18.31-8.42-18.31-19.19,0-10.62,7.84-19.12,18.31-19.12"/><path class="cls-1" d="M223,41.68c5.35,0,9.67-4,9.67-9.08A9.39,9.39,0,0,0,223,23.37a9.16,9.16,0,1,0,0,18.31m-1.46,15.9a13.71,13.71,0,0,0,7.55-1.91c2.85-2,3.22-5.27,3.22-8.06v-0.8c-1.54,2.56-5.79,4.47-11.28,4.47-10.47,0-18.31-8.2-18.31-18.68S210.57,13.48,221,13.48c5.64,0,10,2.27,11,5.49V14.14h10.92V44.9c0,7.62-1,13.77-6.44,18a22,22,0,0,1-13.4,4.25c-7.11,0-13-1.61-18.1-5.2l5.2-7.91a20.78,20.78,0,0,0,11.35,3.52"/><path class="cls-1" d="M268.73,41.83a9.24,9.24,0,1,0,0-18.46,9.23,9.23,0,1,0,0,18.46m-2-28.35c5.64,0,10,2.27,11,5.49V14.14h10.92v24c0,3,.8,4.1,2.71,4.1a15.6,15.6,0,0,0,1.83-.14v9.08a18.34,18.34,0,0,1-4.9.59,12.39,12.39,0,0,1-6-1.32,7.3,7.3,0,0,1-3.3-4c-2.13,3.15-5.79,5.35-12.23,5.35-10.47,0-18.31-8.42-18.31-19.19,0-10.62,7.84-19.12,18.31-19.12"/><path class="cls-1" d="M299.05,24h-4.83V14.14h4.83V6.5L309.68,0V14.14h8.2V24h-8.2V37.21c0,3.59,1.46,4.9,4.69,4.9a19.65,19.65,0,0,0,2.78-.29v9.67a25.79,25.79,0,0,1-5.35.51c-5.42,0-12.74-1.61-12.74-13.18V24Z"/><path class="cls-1" d="M349,28.35c0-3.37-3.59-6.15-8-6.15-4.76,0-8.64,2.71-8.94,6.15H349Zm-28,4.18c0-11.79,8.5-19.34,20-19.34s19,8.35,19,18.75c0,0,0,1.83-.15,3.52H331.95c0.22,4.39,4,7.25,9.81,7.25a12.09,12.09,0,0,0,9-3.59l6.37,6.08a21,21,0,0,1-15.89,6.74c-12,0-20.22-7.54-20.22-19.12V32.52Z"/><polygon class="cls-1" points="41.83 22.9 41.83 46.82 52.8 51.06 52.8 29.24 64.35 22.57 64.35 9.89 41.83 22.9"/></svg>