<svg id="Layer_1" data-name="Layer 1" xmlns="http://www.w3.org/2000/svg" viewBox="0 0 200 38.17"><defs><style>.cls-1{fill:#fff}.cls-2{fill:#517e3a}</style></defs><title>logo-text-W</title><path class="cls-1" d="M186.25 13.76a3.59 3.59 0 0 0-1.09-1 7.78 7.78 0 0 0-1.38-.65 10.3 10.3 0 0 1-1.35-.59 3.52 3.52 0 0 1-1-.79 1.87 1.87 0 0 1-.4-1.26 2.24 2.24 0 0 1 .16-.86 1.94 1.94 0 0 1 .46-.67 2.13 2.13 0 0 1 .7-.44 2.47 2.47 0 0 1 .89-.16 1.91 1.91 0 0 1 .82.16 2.26 2.26 0 0 1 .59.4 2 2 0 0 1 .39.52c.1.19.22.49.24.54a.31.31 0 0 0 .37.06 2.5 2.5 0 0 0 .4-.79 3.63 3.63 0 0 0 .14-.81v-.06a3.85 3.85 0 0 0-1.2-.66 4.94 4.94 0 0 0-1.53-.21 5 5 0 0 0-1.66.26 3.82 3.82 0 0 0-1.27.72 3.11 3.11 0 0 0-.81 1.11 3.54 3.54 0 0 0-.32 1.42 3.11 3.11 0 0 0 .44 1.75 3.73 3.73 0 0 0 1.08 1.07 7.12 7.12 0 0 0 1.38.69 12.23 12.23 0 0 1 1.35.59 3.41 3.41 0 0 1 1 .79 1.84 1.84 0 0 1 .4 1.24 2.77 2.77 0 0 1-.17 1 2.28 2.28 0 0 1-1.27 1.33 2.59 2.59 0 0 1-1 .2 2.9 2.9 0 0 1-1.8-.59 2.87 2.87 0 0 1-.57-.58 3.49 3.49 0 0 1-.38-.64.22.22 0 0 0-.23-.09.24.24 0 0 0-.16.06 3.38 3.38 0 0 0-.38 1.69 5.11 5.11 0 0 0 1.19.69 4.78 4.78 0 0 0 1.85.3 5.58 5.58 0 0 0 1.9-.3 4 4 0 0 0 1.42-.87 3.8 3.8 0 0 0 .89-1.32 4.29 4.29 0 0 0 .3-1.61 2.8 2.8 0 0 0-.39-1.64zM168.51 17.86l-.83-1.86-1-2.28-1-2.47-1-2.46-.98-2.26v-.07a.35.35 0 0 0-.47 0v.06c-.92 2.12-1.86 4.25-2.79 6.34s-1.89 4.21-2.84 6.27l-.07.15h.79a6.18 6.18 0 0 0 .77 0v-.08c.16-.55.39-1.26.7-2.09s.65-1.7 1-2.61h4.39l.48 1.19.53 1.3c.17.42.33.83.48 1.22s.26.72.34 1v.08s.58.05 1 .05h1.12l-.09-.17c-.04-.34-.29-.76-.53-1.31zm-3.64-4.39h-3.7L163 9.22zM105.53 18a8 8 0 0 1-1 .13l-1.24.07h-2.51v-.92V13.89v-.47-.26h3.58a.75.75 0 0 0 .53-.21 2.46 2.46 0 0 0 .3-1H105l-.84.06-1 .05h-2.48v-.92-1.37-1.18-1h1.42l1.16.06 1 .07h.37a.71.71 0 0 0 .52-.2 1.87 1.87 0 0 0 .26-.91v-.12h-.12l-1.6.06h-3.21L99 6.69h-.1v.1q.1 1.16.1 2.31v7.77c0 .77 0 1.42-.06 2.13a.31.31 0 0 0 .07.2.23.23 0 0 0 .13 0h5.41a1.13 1.13 0 0 0 .75-.3 2.55 2.55 0 0 0 .38-.92zM176.72 19.23a1.13 1.13 0 0 0 .75-.3 1.49 1.49 0 0 0 .31-.64v-.27h-.14a23.17 23.17 0 0 1-2.51.21h-2.35v-2.89-3.93-2.33c0-.75.06-1.54.1-2.33v-.07s-.6-.07-1-.07-1 .07-1 .07v.11q.05 1.19.1 2.33v7.77c0 .76.02 1.44.02 2.11a.27.27 0 0 0 .07.17.23.23 0 0 0 .13 0h5.58zM158.12 6.66h-.79a5.53 5.53 0 0 0-.7.07v.09c-.06.26-.17.67-.33 1.22l-.56 1.88-.67 2.22q-.35 1.16-.68 2.21l-.59 1.89-.32 1-.37-1.08-.62-1.85-.71-2.14c-.24-.72-.47-1.44-.69-2.15l-.58-1.88c-.17-.56-.3-1-.39-1.33v-.09a3.38 3.38 0 0 0-1.33 0v.09c-.07.29-.19.73-.36 1.28s-.43 1.14-.64 1.81-.46 1.41-.7 2.13l-.72 2.15-.63 1.89-.38 1.12-.89-2.85q-.47-1.34-.8-2.58c-.24-.81-.47-1.62-.69-2.43s-.43-1.64-.67-2.56a4.87 4.87 0 0 0-.94-.09 4.22 4.22 0 0 0-.94.1h-.08v.08c.12.32.29.8.49 1.44s.44 1.38.69 2.19l.72 2.31.87 2.81.68 2.2.44 1.42v.06a4.55 4.55 0 0 0 .7.07 4.64 4.64 0 0 0 .7-.07v-.05l.59-1.77.67-2 .68-2 .64-1.86.57-1.61.31-.9c.58 1.71 1.13 3.4 1.64 5s1.06 3.36 1.6 5v.07s.42.05.67.05a6.75 6.75 0 0 0 .68-.05v-.07c.11-.29.28-.77.5-1.42l.81-2.12.88-2.6q.46-1.37.88-2.59t.76-2.18c.22-.63.4-1.09.52-1.36zM65.86 6.66h-.79a5.53 5.53 0 0 0-.7.07v.09c-.08.18-.19.62-.37 1.18l-.54 1.87-.67 2.22q-.35 1.16-.68 2.21l-.59 1.89-.32 1-.37-1.08-.62-1.85-.71-2.13c-.24-.72-.5-1.45-.7-2.13l-.58-1.91c-.17-.56-.3-1-.39-1.33v-.09a3.38 3.38 0 0 0-1.33 0v.09c-.07.29-.19.73-.36 1.28s-.36 1.18-.58 1.85-.46 1.41-.7 2.13l-.76 2.17-.63 1.89-.38 1.12-.89-2.85q-.42-1.36-.79-2.59c-.24-.81-.47-1.62-.69-2.43s-.43-1.64-.67-2.56a4.88 4.88 0 0 0-.94-.09 4.23 4.23 0 0 0-.94.1L48 6.74v.08c.12.32.29.8.49 1.44s.44 1.38.69 2.19l.82 2.31.87 2.81.68 2.2.45 1.42v.06a4.55 4.55 0 0 0 .7.07 4.63 4.63 0 0 0 .7-.07v-.05l.6-1.77.67-2 .68-2 .65-1.84.52-1.59.32-.9c.58 1.71 1.13 3.4 1.64 5s1.06 3.36 1.6 5v.07s.42.05.67.05a6.76 6.76 0 0 0 .68-.05v-.07c.11-.29.28-.77.5-1.42l.76-2.22.93-2.46q.46-1.37.88-2.59t.77-2.18c.22-.63.4-1.09.52-1.36zM76.42 17.86L75.59 16l-1-2.28-1-2.47-1-2.46-.98-2.26v-.07a.35.35 0 0 0-.47 0v.06c-.92 2.12-1.86 4.25-2.79 6.34s-1.89 4.21-2.85 6.27l-.07.15h.79a6.18 6.18 0 0 0 .77 0v-.08c.16-.55.39-1.26.7-2.09s.65-1.7 1-2.61h4.39l.48 1.19.56 1.31c.17.42.33.83.48 1.22s.26.72.34 1v.08s.58.05 1 .05h1.12l-.06-.23c-.13-.29-.34-.71-.58-1.26zm-3.64-4.39h-3.7l1.82-4.24zM94 15.69c-1-1.09-1.92-2.19-2.89-3.28.31-.36.7-.77 1.16-1.24s1-1 1.53-1.52l1.59-1.51c.53-.49 1-.92 1.42-1.28l.26-.22H95.9a6 6 0 0 0-.79.07l-1.35 1.5c-.46.51-.92 1-1.38 1.5s-.93 1-1.39 1.42-.9.86-1.32 1.22a.57.57 0 0 1-.19.14.11.11 0 0 1 0-.05v-1-2.33c0-.75.06-1.54.1-2.33v-.1a7.5 7.5 0 0 0-2 0v.11q.05 1.19.1 2.33v7.77c0 .77-.06 1.52-.1 2.27v.11h2v-.11l-.1-2.27V13a.51.51 0 0 1 .14.11c.19.19.49.53.89 1l1.35 1.6 1.53 1.84c.52.64 1 1.21 1.43 1.7s.72.05 1.06.05h1.29l-.17-.2c-1-1.15-2-2.3-3-3.41zM116.52 18.36c-.28-.33-.57-.68-.88-1.07l-1-1.22-1-1.23-.85-1.07-.49-.63a6.47 6.47 0 0 0 1-.28 4.78 4.78 0 0 0 1.22-.64 3.72 3.72 0 0 0 1-1.05 2.86 2.86 0 0 0 .4-1.54 2.89 2.89 0 0 0-.31-1.4 2.51 2.51 0 0 0-.84-.91 3.61 3.61 0 0 0-1.23-.49 8.72 8.72 0 0 0-2.5-.1 14.66 14.66 0 0 1-2 0l-1-.06h-.11v.12Q108 8 108 9.12v7.77c0 .77-.06 1.52-.1 2.27v.11h2v-.11l-.1-2.27V13.33h.55c.37.39.79.86 1.24 1.41s.93 1.16 1.36 1.72.86 1.13 1.21 1.62l.82 1.13H117.42l-.2-.2c-.22-.08-.42-.32-.7-.65zm-3.46-6.44a3.28 3.28 0 0 1-1.08.43 5.62 5.62 0 0 1-1.14.12h-.65l-.46-.06v-.96-1.94l.07-1.88.62-.05h1a4.73 4.73 0 0 1 .94.1 2.48 2.48 0 0 1 .87.36 2 2 0 0 1 .65.7 2.25 2.25 0 0 1 .25 1.12 2.41 2.41 0 0 1-.32 1.29 2.54 2.54 0 0 1-.74.77zm1.94 7.34H117.44M134.76 13.32v-.08a1.8 1.8 0 0 0-.32-.58 1.66 1.66 0 0 0-.5-.35l-.08.19a13.88 13.88 0 0 1-1 1.8c-.33.52-.7 1.08-1.11 1.66-.51-.56-1-1.16-1.5-1.79l-1.52-2a8.53 8.53 0 0 0 .75-.52 6.26 6.26 0 0 0 .81-.75 4 4 0 0 0 .62-.9 2.26 2.26 0 0 0 .24-1 1.87 1.87 0 0 0-.71-1.58 2.87 2.87 0 0 0-1.78-.53 3 3 0 0 0-1.15.21 2.75 2.75 0 0 0-1.72 2.58 3.14 3.14 0 0 0 .35 1.41 11.86 11.86 0 0 0 .81 1.36 6.78 6.78 0 0 0-1.21.67 5.61 5.61 0 0 0-1.05.94 4.48 4.48 0 0 0-.71 1.1 2.94 2.94 0 0 0-.26 1.2 3.07 3.07 0 0 0 .29 1.37 2.87 2.87 0 0 0 .77 1 3.06 3.06 0 0 0 1.12.57 5.06 5.06 0 0 0 1.35.17 4.93 4.93 0 0 0 2.23-.47 6.74 6.74 0 0 0 1.65-1.2c.23.28.44.54.62.79l.44.6a10.82 10.82 0 0 0 1.15.09c.46 0 1.3-.09 1.3-.09l-2.37-2.6a18.52 18.52 0 0 0 1.37-1.59c.36-.54.75-1.11 1.12-1.68zm-6.36-1.64a5.55 5.55 0 0 1-.75-1.25 3.15 3.15 0 0 1-.31-1.22 1.71 1.71 0 0 1 .39-1.15 1.29 1.29 0 0 1 1-.45 1.26 1.26 0 0 1 1 .39 1.44 1.44 0 0 1 .36 1 2.76 2.76 0 0 1-.45 1.4 4 4 0 0 1-1.24 1.29zm-.93 1.4a65.609 65.609 0 0 0 3.28 4.21 5.05 5.05 0 0 1-1.19.89 3.32 3.32 0 0 1-1.52.32 2.59 2.59 0 0 1-1-.2 2.53 2.53 0 0 1-.81-.54 2.5 2.5 0 0 1-.53-.78 2.27 2.27 0 0 1-.19-.91 2.76 2.76 0 0 1 .54-1.76 5.53 5.53 0 0 1 1.42-1.22zM199.9 16.89V11.45 9.12c0-.75.06-1.54.1-2.33v-.11a7.19 7.19 0 0 0-1-.07 8.64 8.64 0 0 0-1 .07v.11q.05 1.19.1 2.33V12h-7.34v-.55-2.33c0-.76.06-1.54.1-2.33v-.11a7.86 7.86 0 0 0-1-.07 8.71 8.71 0 0 0-1 .07v.11q.05 1.19.1 2.33v7.77c0 .77-.06 1.52-.1 2.27v.11h2v-.11l-.1-2.27V13h7.34v3.87c0 .77-.06 1.52-.1 2.27v.11h2v-.09q-.06-1.16-.1-2.27zM84.62 19.23a1.13 1.13 0 0 0 .75-.3 1.35 1.35 0 0 0 .31-.63l.07-.3h-.14a23.16 23.16 0 0 1-2.51.21h-2.35v-2.89-3.93-2.33c0-.75.06-1.54.1-2.33v-.05s-.6-.07-1-.07-1 .07-1 .07v.11Q78.93 8 79 9.12v7.77c0 .76-.06 1.45-.09 2.15a.29.29 0 0 0 .07.17.18.18 0 0 0 .13 0H84.7z"/><path class="cls-2" d="M12.14.6a4.72 4.72 0 0 0 .27.8A84.87 84.87 0 0 1 15 10.66c.4-3.58.81-7 1-8.14A15.09 15.09 0 0 0 16.26 0a17.6 17.6 0 0 0-4.12.6zM17.22.23v.21a21.08 21.08 0 0 1-.35 2.8c-.24 1.2-.76 5.74-1.23 10 .66 2.72 1.22 5.11 1.52 6.17.74 2.64 1.66 6.06 2.24 9.09a14.2 14.2 0 0 0 .6 2.1c.21.57 1.11 3.82 1.69 6.13.09-.62.16-1.08.17-1.3 0-.73 1.23-8.42 1.41-9.37.15-.78.3-1.59.39-2.31.41-3.37 1-7.15 1.45-10.08.5-3.2 1-5.81 1.59-8.45a19.85 19.85 0 0 0 .35-2.88C23.26.07 17.64 0 17.64 0h-.47a1.55 1.55 0 0 1 .05.23zM7.4 13c.67 3 1.51 6.89 2 10.32a17.43 17.43 0 0 0 .6 2.38c.29 1 2 8.88 2 9.61a3.38 3.38 0 0 0 .05.48c.24-2 .52-4.24.6-4.7.11-.7.23-1.42.29-2.05.26-2.95.66-6.29 1-8.88.08-.67.22-1.89.38-3.38-1.22-5-3.08-12.87-3.82-14.5a8.65 8.65 0 0 1-.37-1 13.82 13.82 0 0 0-5 3.59l-.05.06A60.52 60.52 0 0 1 7.4 13zM32.84 17.43c-.11-4.14-.77-10.73-4.37-14-.16-.18-.33-.32-.47-.43v.18a28.36 28.36 0 0 1-.49 3.17c-.58 2.35-1.16 5.44-1.66 8.65-.18 1.11-.36 2.2-.54 3.26-.35 2.06-.68 4-.93 6.05-.38 3.13-1.5 10.59-1.5 10.59 0 .28-.25 1.72-.42 2.91a13.3 13.3 0 0 0 9.56-7c1.09-2.21.93-9.24.82-13.38zM17.63 28.91a49.21 49.21 0 0 0-1.48-5.47c-.3-1-.61-1.94-.89-2.95-.08-.3-.19-.7-.31-1.18-.08.74-.16 1.35-.21 1.76-.12 1-.26 2-.39 2.89-.26 1.83-.5 3.56-.66 5.35-.18 2-.65 6.13-.89 8.15a24 24 0 0 0 7.06.67c-.36-1.36-1.76-6.78-2.23-9.22zM9.68 34.52s-1.6-7.66-2.07-10.83a60.1 60.1 0 0 0-1.35-6.22c-.26-1.09-.57-2.21-.83-3.35C4.87 11.59 4.2 9.13 3.49 7 .51 11.47-.93 17.58.65 25.92c1.05 5.54 4.94 8.9 9.43 10.67-.19-.95-.37-1.85-.4-2.07z"/><path class="cls-1" d="M49.57 27.26h2.53a3.64 3.64 0 0 1 3.9 3.62 3.65 3.65 0 0 1-3.88 3.65h-2.55v-7.27zm2.53 6.53a2.82 2.82 0 0 0 3-2.87 2.84 2.84 0 0 0-3-2.89h-1.7v5.77h1.7zM59 27.26h5.27V28h-4.41v2.5h4v.75h-4v2.55h4.5v.75H59v-7.29zM67.34 27.26h.77l4.59 5.84v-5.84h.8v7.29h-.65l-4.71-6v6h-.8v-7.29zM78.82 28h-2.45v-.74h5.73V28h-2.44v6.53h-.84V28zM86.73 27.2h.77l3.32 7.35h-.88l-.85-1.93h-4l-.86 1.93h-.82zm2 4.68l-1.63-3.72-1.67 3.72h3.32zM93.58 27.26h.82v6.53h4.1v.76h-4.92v-7.29zM106.23 28h-2.45v-.74h5.73V28h-2.45v6.53h-.83V28zM112.38 27.26h5.27V28h-4.45v2.5h4v.75h-4v2.55h4.5v.75h-5.32v-7.29zM123.38 27.2h.77l3.32 7.35h-.89l-.85-1.93h-4l-.86 1.93h-.84zm2 4.68l-1.66-3.72-1.67 3.72h3.32zM130.23 27.26h.83l2.66 4 2.66-4h.83v7.29h-.82v-5.91l-2.66 3.91-2.73-3.9v5.9h-.8v-7.29z"/></svg>