<svg xmlns="http://www.w3.org/2000/svg" viewBox="0 0 1013.28 278.67"><defs><style>.cls-1{isolation:isolate;}.cls-2{fill:#35429b;}.cls-10,.cls-3{fill:none;}.cls-4{opacity:0.8;}.cls-11,.cls-12,.cls-4,.cls-5,.cls-6,.cls-8,.cls-9{mix-blend-mode:multiply;}.cls-5{opacity:0.5;}.cls-11,.cls-12,.cls-13,.cls-6,.cls-8{fill:#231f20;}.cls-6{opacity:0.2;}.cls-7{fill:#c6d3ec;}.cls-8{opacity:0.1;}.cls-9{opacity:0.4;}.cls-10{stroke:#231f20;stroke-miterlimit:10;stroke-width:0.25px;}.cls-11{opacity:0.9;}.cls-12{opacity:0.29;}.cls-14{fill:#1f2367;}.cls-15{fill:#292865;}</style></defs><title>logo</title><g class="cls-1"><g id="top"><path class="cls-2" d="M74.58,16.58V15.17L72.67,13.5V7.58H74L74.58,6,69.92,3.25,69.33,0,68.75,3.33l-4.83,3,1.17,1.42h0.75V14l-1.58,1.42v1.42l-25,13.08V33.5h3.16V79l7.41-.52H89.17L97,78.83l0.25-45.42,3-.08V29.58ZM57.42,57.43L45.67,58.58V38.92l11.75,0.92v17.6Zm11.25-16.6-1,1v7.42l-1,.08v1h1v1.83l-5,.08v2h1.54v3H61.08v-17h7.58v0.58ZM79.08,57.25H76l-0.08-3.33h1.83V52.17H72.17V50.25h1.5v-1H72.5l0.33-7.67L72.17,41V40.25h6.92v17Zm2.67,0.42V39.92l11.92-.43V58.25Z"/><polygon class="cls-3" points="81.75 57.67 93.67 58.25 93.67 39.49 81.75 39.92 81.75 57.67"/><polygon class="cls-3" points="59.08 57.25 61.08 57.25 64.17 57.25 76 57.25 79.08 57.25 79.75 57.25 79.75 35.58 59.08 35.58 59.08 57.25"/><polygon class="cls-3" points="45.67 38.92 45.67 58.58 57.42 57.58 57.42 39.83 45.67 38.92"/><polygon class="cls-4" points="43.92 58.8 45.67 58.58 45.67 38.92 57.42 39.83 57.42 57.43 58.33 57.25 58.33 35.58 43.92 36.92 43.92 58.8"/><polygon class="cls-3" points="45.67 58.58 57.42 57.58 57.42 39.83 45.67 38.92 45.67 58.58"/><polygon class="cls-3" points="81.75 57.67 93.67 58.25 93.67 39.49 81.75 39.92 81.75 57.67"/><polygon class="cls-3" points="62.63 54.25 62.63 52.25 67.67 52.17 67.67 50.33 66.67 50.33 66.67 49.33 67.67 49.25 67.67 41.83 68.67 40.83 68.67 40.25 61.08 40.25 61.08 57.25 64.17 57.25 64.17 54.25 62.63 54.25"/><polygon class="cls-3" points="72.17 40.25 72.17 41 72.83 41.58 72.5 49.25 73.67 49.25 73.67 50.25 72.17 50.25 72.17 52.17 77.75 52.17 77.75 53.92 75.92 53.92 76 57.25 79.08 57.25 79.08 40.25 72.17 40.25"/><polygon class="cls-4" points="59.08 57.25 61.08 57.25 61.08 40.25 68.67 40.25 68.67 40.83 67.67 41.83 67.67 49.25 66.67 49.33 66.67 50.33 67.67 50.33 67.67 52.17 62.63 52.25 62.63 54.25 64.17 54.25 64.17 57.25 76 57.25 75.92 53.92 77.75 53.92 77.75 52.17 72.17 52.17 72.17 50.25 73.67 50.25 73.67 49.25 72.5 49.25 72.83 41.58 72.17 41 72.17 40.25 79.08 40.25 79.08 57.25 79.75 57.25 79.75 35.58 59.08 35.58 59.08 57.25"/><polygon class="cls-3" points="45.67 58.58 57.42 57.43 57.42 39.83 45.67 38.92 45.67 58.58"/><polygon class="cls-3" points="61.08 57.25 64.17 57.25 64.17 54.25 62.63 54.25 62.63 52.25 67.67 52.17 67.67 50.33 66.67 50.33 66.67 49.33 67.67 49.25 67.67 41.83 68.67 40.83 68.67 40.25 61.08 40.25 61.08 57.25"/><polygon class="cls-3" points="72.17 41 72.83 41.58 72.5 49.25 73.67 49.25 73.67 50.25 72.17 50.25 72.17 52.17 77.75 52.17 77.75 53.92 75.92 53.92 76 57.25 79.08 57.25 79.08 40.25 72.17 40.25 72.17 41"/><polygon class="cls-4" points="81.75 39.92 93.67 39.49 93.67 58.25 96.43 58.58 96.43 36.59 81.75 35.58 81.75 39.92"/><polygon class="cls-3" points="81.75 39.92 81.75 57.67 93.67 58.25 93.67 39.49 81.75 39.92"/><polygon class="cls-5" points="42.41 36.42 42.41 59 43.92 58.8 43.92 36.92 58.33 35.58 58.33 57.25 59.08 57.25 59.08 35.58 79.75 35.58 79.75 34.75 58.08 34.75 42.41 36.42"/><path class="cls-5" d="M74.58,16.58V15.17L72.67,13.5V7.58H74L74.58,6,69.92,3.25l2.25,2.83-8.25.25,1.17,1.42h0.75l5.58-.17v6l0.75,1.25v1.5l10,11.42v1.67H56.75l-17.5,1.83V33.5h3.16l1.5-1.33,9.25-.08c0.25,0,2.92-1,2.92-1h2.17l5.08,2.25,17.75-.08V78.46h8.08L97,78.83l0.25-45.42,3-.08V29.58Zm21.85,42-2.77-.33-11.92-.58V35.58l14.68,1v22Z"/><polygon class="cls-6" points="57.75 31.08 57.75 34.75 79.75 34.75 79.75 35.58 79.75 57.25 79.08 57.25 76 57.25 64.17 57.25 61.08 57.25 58.33 57.25 58.33 78.46 81.08 78.46 81.08 35.58 81.08 33.25 63.33 33.33 57.75 31.08"/><polygon class="cls-6" points="72.17 16.33 72.17 14.83 71.42 13.58 71.42 7.58 68.67 7.67 68.67 13.75 68.17 15 68.17 16.25 56.75 28.25 56.75 29.42 82.17 29.42 82.17 27.75 72.17 16.33"/></g><g id="main"><path class="cls-7" d="M126.67,278.67l-2.25-7h-2.06l-2.56-4.87-1.75-.19s-14.25-149-15.62-164.44,14.94-16.56,14.94-16.56V79.83H111.6L89.17,78.46H87.71v-6c7.75,4,14.42,3.5,22.46,1.13v1.5S106.11,77.82,97.6,79l2.7,0.16s5.95-.68,9.87-3v3.58l1.44,0.09V61.75s-0.81-1-1.44,0v1.38S95.58,66.38,87.71,61V59.88s-1.42-1.08-2.25,0v0.92A73.38,73.38,0,0,1,52.83,61V60a1.5,1.5,0,0,0-1.83,0v1.29a86.88,86.88,0,0,1-22.22,1.21V61.88a1.4,1.4,0,0,0-2,0v2.62s-1.12,0-1.12.29V80.14l-0.33,0h-3.5v5h2.5c12.53,0,13.17,14.67,13.17,14.67L26.33,217,0,227v2.17H4.67v49.5h122Zm-39-216.79s7.21,5.25,22.46,2v1.21s-7.21,3-13.11,3c0,0.49,0,.63,0,0.67s5.49,0.25,13.11-2.87v6.71S97.5,78,87.71,71.42V61.88Zm-34.87,0s16.86,4.08,32.62,0v9.5a69.25,69.25,0,0,1-32.62.33V61.88Zm0,10.58s5.83,1.79,16.58,1.79,16-1.79,16-1.79v6H52.83v-6ZM28.74,66.92a36.29,36.29,0,0,0,13.67,2.91V69.25S33.87,69,28.74,66V63s9,1.42,22.26-1.08V72.08a35.36,35.36,0,0,1-22.26.83v-6ZM27.35,80l1.39-.12V76.67a41.79,41.79,0,0,0,13.67,1.79V77.83s-7.78.16-13.67-1.92V73.75A38.45,38.45,0,0,0,51,73.17v5.29H49.82Z"/><path class="cls-8" d="M89.17,81.83H49.82s6.93,2.75,6.51,17.59-4.47,119.74-4.47,119.74l37.7,40.09L84,100.67S83.75,88.66,89.17,81.83Z"/><path class="cls-9" d="M124.42,271.65h-2.06l-2.56-4.87-1.75-.19L102.42,102.15S100,87.77,117.35,85.58V79.83H111.6L89.17,78.46v3.37S83.83,88.67,84,100.67C84.14,111,88.39,227.3,89.56,259.25L51.17,218.42v-1.83H50.54L23.79,227.46v1.71H4.67v1l20.25,0.17v48.29H54.06c0-1.6-.06-4.19-0.06-6.12,10.54-1.67,15.29-5.42,15.29-5.42h5l2.83-10,12.48,4.63,0.21,5.62,1.1,0.75,1.65,4.31,0.3,6.27h33.76Z"/><path class="cls-6" d="M89.17,81.83H49.82L21.83,84v1.21S29.77,84,33.67,89.39h3.41l1.33,0.73,9.24-.28,0.91-1.68,6-.14a2.48,2.48,0,0,1,.7,1c2.73,1.12,21.42,9.66,21.42,9.66H79A10.43,10.43,0,0,0,84,101C84,98,84,89.44,89.17,81.83Z"/><path class="cls-10" d="M97,78.83"/><polygon class="cls-11" points="89.95 106.17 91.07 128.25 97.02 128.75 97.02 106.7 89.95 106.17"/><polygon class="cls-11" points="93.62 166.78 94.68 188.92 100.08 189.07 100.08 167.28 93.62 166.78"/><path class="cls-11" d="M97.58,230.25l7,0.33,0.75,21.92H98.75S98,240.92,97.58,230.25Z"/><rect class="cls-11" x="32.17" y="239.17" width="4.33" height="11.67"/><path class="cls-12" d="M110.17,63.13S95.58,66.38,87.71,61V59.88s-1.42-1.08-2.25,0v0.92A73.38,73.38,0,0,1,52.83,61v0.88s16.86,4.08,32.62,0v9.5a69.25,69.25,0,0,1-32.62.33v0.75s5.83,1.79,16.58,1.79,16-1.79,16-1.79v6h2.25v-6c7.75,4,14.42,3.5,22.46,1.13v-1S97.5,78,87.71,71.42V61.88s7.21,5.25,22.46,2V63.13Z"/><g class="cls-5"><path class="cls-13" d="M28.74,66.92a36.29,36.29,0,0,0,13.67,2.91V69.25S33.87,69,28.74,66v0.92Z"/><path class="cls-13" d="M28.74,75.92v0.75a41.79,41.79,0,0,0,13.67,1.79V77.83S34.63,78,28.74,75.92Z"/><path class="cls-13" d="M100.3,79.14s5.95-.68,9.87-3V75.08S106.11,77.82,97.6,79Z"/><path class="cls-13" d="M97.06,68.08c0,0.49,0,.63,0,0.67s5.49,0.25,13.11-2.87V65.13S103,68.08,97.06,68.08Z"/></g><path class="cls-14" d="M154.15,88.48h23.39l36.18,71H214v-71h18.22v94.93H209l-36.31-71h-0.27v71H154.15V88.48Z"/><path class="cls-14" d="M243.63,88.48h20l17.68,75.89h0.27l16.18-75.89H323.6l16.73,75.89h0.27l17.82-75.89h18.5l-24.75,94.93H327.68l-17.14-75.89h-0.27l-16.86,75.89H268.79Z"/><path class="cls-14" d="M458.38,182a96.31,96.31,0,0,1-21.62,3c-30.74,0-52.09-15.37-52.09-47.46,0-32.5,19.86-50.73,52.09-50.73a62.72,62.72,0,0,1,21.49,3.94l-1.36,16c-7.21-4.08-13.74-5-20.54-5-19.58,0-31.82,15-31.82,34.41s12,33.86,32.23,33.86c7.48,0,16.32-1.63,20.81-3.94Z"/><path class="cls-14" d="M541.47,182a96.31,96.31,0,0,1-21.62,3c-30.74,0-52.09-15.37-52.09-47.46,0-32.5,19.86-50.73,52.09-50.73a62.72,62.72,0,0,1,21.49,3.94l-1.36,16c-7.21-4.08-13.74-5-20.54-5-19.58,0-31.82,15-31.82,34.41s12,33.86,32.23,33.86c7.48,0,16.32-1.63,20.81-3.94Z"/><path class="cls-14" d="M554.8,88.48h19v54.81c0,16.18,5.17,26.79,19.72,26.79s19.72-10.61,19.72-26.79V88.48h19v60.66c0,25.43-14.42,35.9-38.76,35.9s-38.76-10.47-38.76-35.9V88.48Z"/><path class="cls-15" d="M153,223.4h3.39l13.85,23.95h0.08V223.4H173v27.22h-3.63l-13.61-23.48h-0.08v23.48H153V223.4Z"/><path class="cls-15" d="M186.81,230.26c6.44,0,9.28,5,9.28,10.41s-2.85,10.41-9.28,10.41-9.28-5-9.28-10.41S180.38,230.26,186.81,230.26Zm0,18.72c4.29,0,6.59-3.71,6.59-8.31s-2.3-8.31-6.59-8.31-6.59,3.71-6.59,8.31S182.52,249,186.81,249Z"/><path class="cls-15" d="M200.74,235.17a35.81,35.81,0,0,0-.16-4.45H203v3.82h0.08c0.9-2.22,2.57-4.29,5.11-4.29a7.29,7.29,0,0,1,1.72.23v2.57a6.44,6.44,0,0,0-1.79-.23c-3.9,0-5,4.37-5,8v9.83h-2.46V235.17Z"/><path class="cls-15" d="M222.3,232.83h-4.52V245.7c0,1.79.66,3.28,2.65,3.28a5.68,5.68,0,0,0,2.26-.47l0.16,2a9,9,0,0,1-3,.55c-4.37,0-4.52-3-4.52-6.63V232.83h-3.9v-2.11h3.9v-4.8l2.46-.86v5.66h4.52v2.11Z"/><path class="cls-15" d="M226.71,221.37h2.46v12.71h0.08a6.75,6.75,0,0,1,6.2-3.82c5.34,0,6.79,3.55,6.79,8.46v11.9h-2.46V238.76c0-3.43-.66-6.4-4.72-6.4-4.37,0-5.89,4.13-5.89,7.61v10.65h-2.46V221.37Z"/><path class="cls-15" d="M268.83,250.62h-3l-5.42-17.2h-0.08l-5.42,17.2h-3l-6.4-19.89h2.69l5.23,17.2h0.08l5.54-17.2h3l5.27,17.2h0.08l5.5-17.2h2.46Z"/><path class="cls-15" d="M292.07,250a16.29,16.29,0,0,1-5.77,1.09c-6.59,0-9-4.45-9-10.41s3.35-10.41,8.39-10.41c5.62,0,7.92,4.52,7.92,9.87v1.25H279.94c0,4.21,2.26,7.61,6.55,7.61a12.79,12.79,0,0,0,5.58-1.48V250Zm-1.21-10.73c0-3.47-1.4-6.9-5.07-6.9s-5.85,3.63-5.85,6.9h10.92Z"/><path class="cls-15" d="M296.71,247.73A11.71,11.71,0,0,0,301.9,249c2.34,0,4.41-1.29,4.41-3.55,0-4.72-9.56-4-9.56-9.75,0-3.94,3.2-5.42,6.47-5.42a15.67,15.67,0,0,1,4.91.9l-0.23,2.15a11.61,11.61,0,0,0-4.41-.94c-2.53,0-4.29.78-4.29,3.32,0,3.71,9.79,3.24,9.79,9.75,0,4.21-3.94,5.66-6.94,5.66a15,15,0,0,1-5.58-.94Z"/><path class="cls-15" d="M322,232.83h-4.52V245.7c0,1.79.66,3.28,2.65,3.28a5.69,5.69,0,0,0,2.26-.47l0.16,2a9,9,0,0,1-3,.55c-4.37,0-4.52-3-4.52-6.63V232.83h-3.9v-2.11H315v-4.8l2.46-.86v5.66H322v2.11Z"/><path class="cls-15" d="M356.19,226.44a14.11,14.11,0,0,0-6.08-1.17c-7.06,0-11,5-11,11.74s3.86,11.74,11,11.74c1.79,0,4.52-.23,6.08-1.17l0.16,2.34c-1.48.9-4.52,1.17-6.24,1.17-8.58,0-13.73-5.66-13.73-14.08,0-8.27,5.3-14.08,13.73-14.08,1.6,0,4.84.27,6.24,1Z"/><path class="cls-15" d="M371,230.26c6.43,0,9.28,5,9.28,10.41s-2.85,10.41-9.28,10.41-9.28-5-9.28-10.41S364.57,230.26,371,230.26ZM371,249c4.29,0,6.59-3.71,6.59-8.31s-2.3-8.31-6.59-8.31-6.59,3.71-6.59,8.31S366.72,249,371,249Z"/><path class="cls-15" d="M409,250.62V237.4c0-2.81-1.05-5-4.21-5-2.69,0-5.34,2.3-5.34,7.25v11h-2.46V237.4c0-2.81-1.05-5-4.21-5-2.69,0-5.34,2.3-5.34,7.25v11h-2.46V235.41c0-1.52,0-3.08-.16-4.68h2.38v3.35l0.08,0c0.78-1.36,2-3.86,6.2-3.86a5,5,0,0,1,5.27,4.21h0.08a6.68,6.68,0,0,1,6.36-4.21c4,0,6.28,2.81,6.28,6.67v13.69H409Z"/><path class="cls-15" d="M441.44,250.62V237.4c0-2.81-1.05-5-4.21-5-2.69,0-5.34,2.3-5.34,7.25v11h-2.46V237.4c0-2.81-1.05-5-4.21-5-2.69,0-5.34,2.3-5.34,7.25v11h-2.46V235.41c0-1.52,0-3.08-.16-4.68h2.38v3.35l0.08,0c0.78-1.36,2-3.86,6.2-3.86a5,5,0,0,1,5.27,4.21h0.08a6.68,6.68,0,0,1,6.36-4.21c4,0,6.28,2.81,6.28,6.67v13.69h-2.46Z"/><path class="cls-15" d="M452.36,225.42H449.9v-3.28h2.46v3.28Zm-2.46,5.3h2.46v19.89H449.9V230.73Z"/><path class="cls-15" d="M457,247.73a11.71,11.71,0,0,0,5.19,1.25c2.34,0,4.41-1.29,4.41-3.55,0-4.72-9.56-4-9.56-9.75,0-3.94,3.2-5.42,6.47-5.42a15.67,15.67,0,0,1,4.91.9l-0.23,2.15a11.61,11.61,0,0,0-4.41-.94c-2.54,0-4.29.78-4.29,3.32,0,3.71,9.79,3.24,9.79,9.75,0,4.21-3.94,5.66-6.94,5.66a15,15,0,0,1-5.58-.94Z"/><path class="cls-15" d="M472.21,247.73A11.71,11.71,0,0,0,477.4,249c2.34,0,4.41-1.29,4.41-3.55,0-4.72-9.56-4-9.56-9.75,0-3.94,3.2-5.42,6.47-5.42a15.67,15.67,0,0,1,4.91.9l-0.23,2.15a11.61,11.61,0,0,0-4.41-.94c-2.54,0-4.29.78-4.29,3.32,0,3.71,9.79,3.24,9.79,9.75,0,4.21-3.94,5.66-6.94,5.66a15,15,0,0,1-5.58-.94Z"/><path class="cls-15" d="M491.36,225.42H488.9v-3.28h2.46v3.28Zm-2.46,5.3h2.46v19.89H488.9V230.73Z"/><path class="cls-15" d="M505.32,230.26c6.43,0,9.28,5,9.28,10.41s-2.85,10.41-9.28,10.41-9.28-5-9.28-10.41S498.89,230.26,505.32,230.26Zm0,18.72c4.29,0,6.59-3.71,6.59-8.31s-2.3-8.31-6.59-8.31-6.59,3.71-6.59,8.31S501,249,505.32,249Z"/><path class="cls-15" d="M519.24,235.41c0-1.52,0-3.08-.16-4.68h2.38v3.55h0.08c0.82-1.79,2.3-4,6.44-4,4.91,0,6.79,3.28,6.79,7.64v12.71h-2.46V238.53c0-3.74-1.33-6.16-4.72-6.16-4.49,0-5.89,3.94-5.89,7.25v11h-2.46V235.41Z"/><path class="cls-15" d="M559.53,230.26c6.43,0,9.28,5,9.28,10.41s-2.85,10.41-9.28,10.41-9.28-5-9.28-10.41S553.09,230.26,559.53,230.26Zm0,18.72c4.29,0,6.59-3.71,6.59-8.31s-2.3-8.31-6.59-8.31-6.59,3.71-6.59,8.31S555.24,249,559.53,249Z"/><path class="cls-15" d="M573.45,235.41c0-1.52,0-3.08-.16-4.68h2.38v3.55h0.08c0.82-1.79,2.3-4,6.44-4,4.91,0,6.79,3.28,6.79,7.64v12.71h-2.46V238.53c0-3.74-1.33-6.16-4.72-6.16-4.49,0-5.89,3.94-5.89,7.25v11h-2.46V235.41Z"/><path class="cls-15" d="M624.93,226.44a14.11,14.11,0,0,0-6.08-1.17c-7.06,0-11,5-11,11.74s3.86,11.74,11,11.74c1.79,0,4.52-.23,6.08-1.17l0.16,2.34c-1.48.9-4.52,1.17-6.24,1.17-8.58,0-13.73-5.66-13.73-14.08,0-8.27,5.3-14.08,13.73-14.08,1.6,0,4.84.27,6.24,1Z"/><path class="cls-15" d="M639.75,230.26c6.43,0,9.28,5,9.28,10.41s-2.85,10.41-9.28,10.41-9.28-5-9.28-10.41S633.32,230.26,639.75,230.26Zm0,18.72c4.29,0,6.59-3.71,6.59-8.31s-2.3-8.31-6.59-8.31-6.59,3.71-6.59,8.31S635.46,249,639.75,249Z"/><path class="cls-15" d="M653.67,221.37h2.46v29.25h-2.46V221.37Z"/><path class="cls-15" d="M662.33,221.37h2.46v29.25h-2.46V221.37Z"/><path class="cls-15" d="M684.33,250a16.3,16.3,0,0,1-5.77,1.09c-6.59,0-9-4.45-9-10.41s3.35-10.41,8.39-10.41c5.62,0,7.92,4.52,7.92,9.87v1.25H672.2c0,4.21,2.26,7.61,6.55,7.61a12.79,12.79,0,0,0,5.58-1.48V250Zm-1.21-10.73c0-3.47-1.4-6.9-5.07-6.9s-5.85,3.63-5.85,6.9h10.92Z"/><path class="cls-15" d="M706.24,249c0,5.54-2.5,10.06-9.32,10.06a20.6,20.6,0,0,1-6-1.05l0.2-2.46a13.48,13.48,0,0,0,5.85,1.4c6.32,0,6.86-4.6,6.86-10.22h-0.08a6.16,6.16,0,0,1-6,3.9c-6.36,0-8.38-5.54-8.38-9.95,0-6,2.34-10.41,8.19-10.41,2.65,0,4.37.35,6.2,2.73h0.08v-2.26h2.46V249Zm-8.5-.47c4.45,0,6-4.21,6-7.84,0-4.8-1.4-8.31-5.89-8.31-4.68,0-5.89,4.45-5.89,8.31S693.57,248.51,697.74,248.51Z"/><path class="cls-15" d="M725.51,250a16.3,16.3,0,0,1-5.77,1.09c-6.59,0-9-4.45-9-10.41s3.35-10.41,8.39-10.41c5.62,0,7.92,4.52,7.92,9.87v1.25H713.38c0,4.21,2.26,7.61,6.55,7.61a12.79,12.79,0,0,0,5.58-1.48V250Zm-1.21-10.73c0-3.47-1.4-6.9-5.07-6.9s-5.85,3.63-5.85,6.9H724.3Z"/><path class="cls-15" d="M730.15,247.73a11.71,11.71,0,0,0,5.19,1.25c2.34,0,4.41-1.29,4.41-3.55,0-4.72-9.56-4-9.56-9.75,0-3.94,3.2-5.42,6.47-5.42a15.67,15.67,0,0,1,4.91.9l-0.23,2.15a11.61,11.61,0,0,0-4.41-.94c-2.54,0-4.29.78-4.29,3.32,0,3.71,9.79,3.24,9.79,9.75,0,4.21-3.94,5.66-6.94,5.66a15,15,0,0,1-5.58-.94Z"/><path class="cls-15" d="M769.11,247.42H769a7,7,0,0,1-6.32,3.67c-5.66,0-6.55-3.82-6.55-5.62,0-6.67,7.1-7,12.25-7h0.47v-1c0-3.39-1.21-5.11-4.52-5.11A10.56,10.56,0,0,0,758.5,234v-2.38a15.68,15.68,0,0,1,5.85-1.36c4.91,0,7,2.22,7,7.41v8.78a28.23,28.23,0,0,0,.2,4.17h-2.42v-3.2Zm-0.23-6.83h-0.7c-4.25,0-9.32.43-9.32,4.8,0,2.61,1.87,3.59,4.13,3.59,5.77,0,5.89-5,5.89-7.18V240.6Z"/><path class="cls-15" d="M777.18,235.41c0-1.52,0-3.08-.16-4.68h2.38v3.55h0.08c0.82-1.79,2.3-4,6.44-4,4.91,0,6.79,3.28,6.79,7.64v12.71h-2.46V238.53c0-3.74-1.33-6.16-4.72-6.16-4.49,0-5.89,3.94-5.89,7.25v11h-2.46V235.41Z"/><path class="cls-15" d="M814.62,250.62h-2.46v-3.16h-0.08a6.37,6.37,0,0,1-6.2,3.63c-5.46,0-8.19-4.52-8.19-10.41,0-6,2.34-10.41,8.19-10.41a6.7,6.7,0,0,1,6.2,3.82h0.08V221.37h2.46v29.25ZM806.28,249c4.37,0,5.89-4.68,5.89-8.31s-1.52-8.31-5.89-8.31c-4.68,0-5.89,4.45-5.89,8.31S801.6,249,806.28,249Z"/><path class="cls-15" d="M851.21,241.1c0,8-5.89,10-9.87,10s-9.87-2-9.87-10V223.4h2.69V241.1c0,4.45,2.46,7.64,7.18,7.64s7.18-3.2,7.18-7.64V223.4h2.69V241.1Z"/><path class="cls-15" d="M857.41,235.41c0-1.52,0-3.08-.16-4.68h2.38v3.55h0.08c0.82-1.79,2.3-4,6.44-4,4.91,0,6.79,3.28,6.79,7.64v12.71h-2.46V238.53c0-3.74-1.33-6.16-4.72-6.16-4.49,0-5.89,3.94-5.89,7.25v11h-2.46V235.41Z"/><path class="cls-15" d="M881.55,225.42h-2.46v-3.28h2.46v3.28Zm-2.46,5.3h2.46v19.89h-2.46V230.73Z"/><path class="cls-15" d="M894.65,250.62h-2.89L885,230.73h2.69l5.5,17.2h0.08l5.77-17.2h2.57Z"/><path class="cls-15" d="M918.4,250a16.3,16.3,0,0,1-5.77,1.09c-6.59,0-9-4.45-9-10.41s3.35-10.41,8.39-10.41c5.62,0,7.92,4.52,7.92,9.87v1.25H906.27c0,4.21,2.26,7.61,6.55,7.61a12.79,12.79,0,0,0,5.58-1.48V250Zm-1.21-10.73c0-3.47-1.4-6.9-5.07-6.9s-5.85,3.63-5.85,6.9h10.92Z"/><path class="cls-15" d="M924.56,235.17a35.69,35.69,0,0,0-.16-4.45h2.46v3.82h0.08c0.9-2.22,2.57-4.29,5.11-4.29a7.29,7.29,0,0,1,1.72.23v2.57a6.44,6.44,0,0,0-1.79-.23c-3.9,0-5,4.37-5,8v9.83h-2.46V235.17Z"/><path class="cls-15" d="M936,247.73a11.71,11.71,0,0,0,5.19,1.25c2.34,0,4.41-1.29,4.41-3.55,0-4.72-9.56-4-9.56-9.75,0-3.94,3.2-5.42,6.47-5.42a15.67,15.67,0,0,1,4.91.9l-0.23,2.15a11.61,11.61,0,0,0-4.41-.94c-2.54,0-4.29.78-4.29,3.32,0,3.71,9.79,3.24,9.79,9.75,0,4.21-3.94,5.66-6.94,5.66a15,15,0,0,1-5.58-.94Z"/><path class="cls-15" d="M955.18,225.42h-2.46v-3.28h2.46v3.28Zm-2.46,5.3h2.46v19.89h-2.46V230.73Z"/><path class="cls-15" d="M970,232.83h-4.52V245.7c0,1.79.66,3.28,2.65,3.28a5.69,5.69,0,0,0,2.26-.47l0.16,2a9,9,0,0,1-3,.55c-4.37,0-4.52-3-4.52-6.63V232.83h-3.9v-2.11H963v-4.8l2.46-.86v5.66H970v2.11Z"/><path class="cls-15" d="M976.82,225.42h-2.46v-3.28h2.46v3.28Zm-2.46,5.3h2.46v19.89h-2.46V230.73Z"/><path class="cls-15" d="M996.36,250a16.3,16.3,0,0,1-5.77,1.09c-6.59,0-9-4.45-9-10.41s3.35-10.41,8.39-10.41c5.62,0,7.92,4.52,7.92,9.87v1.25H984.23c0,4.21,2.26,7.61,6.55,7.61a12.79,12.79,0,0,0,5.58-1.48V250Zm-1.21-10.73c0-3.47-1.4-6.9-5.07-6.9s-5.85,3.63-5.85,6.9h10.92Z"/><path class="cls-15" d="M1001,247.73a11.71,11.71,0,0,0,5.19,1.25c2.34,0,4.41-1.29,4.41-3.55,0-4.72-9.56-4-9.56-9.75,0-3.94,3.2-5.42,6.47-5.42a15.67,15.67,0,0,1,4.91.9l-0.23,2.15a11.61,11.61,0,0,0-4.41-.94c-2.54,0-4.29.78-4.29,3.32,0,3.71,9.79,3.24,9.79,9.75,0,4.21-3.94,5.66-6.94,5.66a15,15,0,0,1-5.58-.94Z"/></g></g></svg>