<svg id="Layer_1" xmlns="http://www.w3.org/2000/svg" viewBox="0 0 49.4 50"><style>.st0{fill:#85a05f}</style><path class="st0" d="M38 40.1c.7-.5 1.4-1 2-1.5 7.3-6.1 10.4-13.9 9.1-23.4-.1-1-.8-1.5-1.7-1.4-.9.1-1.4.8-1.3 1.8.1.6.1 1.2.2 1.9h-2.5C43.1 8.2 35.3.3 25.2 0 15.3-.3 6.4 7.3 5.5 17.5H3c.1-.6.1-1.2.2-1.8.2-1-.3-1.7-1.2-1.9-.9-.1-1.6.4-1.7 1.4-1.2 8.1 1 15.1 6.6 21 1.2 1.3 2.6 2.3 3.9 3.5l-.3.6c-1.2 2.1-2.4 4.3-3.6 6.4-.6 1.1-.3 2.2.7 2.8 1 .6 2.2.3 2.8-.8.2-.3.4-.7.6-1.1 1.2-2 2.3-4.1 3.5-6.1 6.6 2.9 13.3 3 20 .3.2.4.4.8.6 1.1 1.1 1.9 2.2 3.9 3.3 5.8.5.8 1.2 1.2 2.1 1 .8-.1 1.6-.8 1.7-1.6 0-.5-.1-1.2-.4-1.7-1.3-1.9-2.6-4.1-3.8-6.3zm-13.3-37c9 0 16.2 7.2 16.2 16.1 0 8.9-7.3 16.2-16.2 16.1-8.9 0-16.1-7.3-16.1-16.2-.1-8.8 7.2-16 16.1-16zm1.4 37.7c-12.9.8-22.4-9.3-23-20.2h2.4c.7 6.2 3.5 11.1 8.7 14.6 3.3 2.2 7 3.2 10.9 3.1 8.3-.1 17.8-6.7 18.7-17.7h2.3c-.1 9.1-7.7 19.5-20 20.2z"/><path class="st0" d="M15.5 25.2c-.6.5-.7 1-.4 1.5.4.5 1 .5 1.6 0 .1-.1.2-.2.3-.2 1.9-1.5 3.8-3 5.7-4.4 3.6-2.8 7.2-5.5 10.7-8.3l.8-.8c0-1-.8-1.5-1.4-1.1-.2.1-.3.2-.5.4-4.2 3.3-8.5 6.5-12.7 9.8-1.3.9-2.7 2-4.1 3.1zM16.1 19.7c3.5-2.7 7-5.4 10.5-8 .3-.2.4-.5.7-.9-.3-.3-.4-.7-.7-.8-.3-.1-.8-.1-1.1.1-.8.5-1.6 1.2-2.4 1.8-2.7 2.1-5.5 4.2-8.2 6.3-.6.5-.7 1-.4 1.5.4.4 1 .4 1.6 0zM33.3 19.1c-2.2 1.6-4.3 3.3-6.4 4.9-1.3 1-2.7 2-4 3.1-.3.2-.4.8-.4 1.2 0 .3.5.5.8.8.5-.3.8-.4 1.1-.7 2-1.5 4-3 6-4.6 1.4-1.1 2.9-2.2 4.3-3.3.3-.2.5-.8.4-1.1 0-.3-.5-.6-.8-.7-.3 0-.7.2-1 .4z"/></svg>