<svg xmlns="http://www.w3.org/2000/svg" viewBox="0 0 531.4 190.87"><defs><style>.cls-1{isolation:isolate;}.cls-2{fill:#7faddc;}.cls-12,.cls-3{fill:none;}.cls-4{fill:#18325b;}.cls-5{fill:#3569a9;}.cls-6{fill:#3e73b2;}.cls-7{fill:#6899d1;}.cls-8{fill:#e0e5ec;}.cls-11,.cls-13,.cls-9{fill:#231f20;}.cls-9{opacity:0.1;}.cls-10,.cls-11,.cls-13,.cls-9{mix-blend-mode:multiply;}.cls-10{opacity:0.4;}.cls-11{opacity:0.2;}.cls-12{stroke:#231f20;stroke-miterlimit:10;stroke-width:0.25px;}.cls-13{opacity:0.29;}.cls-14{fill:#6199de;}.cls-15{fill:#2a3680;}.cls-16{fill:#292865;}</style></defs><title>ncu-logo</title><g class="cls-1"><g id="Layer_1" data-name="Layer 1"><path class="cls-2" d="M91.47,38.36V35.88L88.11,33V22.6h2.33l1-2.77L83.3,15l-1-5.69-1,5.83L72.8,20.42l2,2.48h1.31V33.83l-2.77,2.48v2.48L29.63,61.69V64L35.17,68v79.59l13-.9H117l13.71,0.66,0.44-79.48,5.25-4.08V61.11Zm-30,71.49-20.56,2V77.44L61.42,79v30.8ZM81.11,79.77v1l-1.75,1.75v13l-1.75.15v1.75h1.75v3.21l-8.82.15v3.5h2.7v5.25h-5.4V79.77m31.5,29.75h-5.4l-0.15-5.83H97v-3.06H87.24V97.28h2.63V95.53h-2L88.4,82.11l-1.17-1V79.77h12.1v29.75Zm4.67,0.73V79.19l20.86-.75v32.84Z" transform="translate(0 -9.33)"/><polygon class="cls-3" points="104 100.65 124.86 101.67 124.86 68.84 104 69.59 104 100.65"/><polygon class="cls-3" points="64.33 99.92 67.83 99.92 73.23 99.92 93.94 99.92 99.34 99.92 100.5 99.92 100.5 62.01 64.33 62.01 64.33 99.92"/><polygon class="cls-3" points="40.85 67.84 40.85 102.26 61.42 100.51 61.42 69.44 40.85 67.84"/><polygon class="cls-4" points="37.79 102.64 40.85 102.26 40.85 67.84 61.42 69.44 61.42 100.24 63.02 99.92 63.02 62.01 37.79 64.34 37.79 102.64"/><polygon class="cls-3" points="40.85 102.26 61.42 100.51 61.42 69.44 40.85 67.84 40.85 102.26"/><polygon class="cls-3" points="104 100.65 124.86 101.67 124.86 68.84 104 69.59 104 100.65"/><polygon class="cls-3" points="70.53 94.67 70.53 91.17 79.36 91.03 79.36 87.82 77.61 87.82 77.61 86.07 79.36 85.92 79.36 72.94 81.11 71.19 81.11 70.17 67.83 70.17 67.83 99.92 73.23 99.92 73.23 94.67 70.53 94.67"/><polygon class="cls-3" points="87.23 70.17 87.23 71.48 88.4 72.5 87.81 85.92 89.86 85.92 89.86 87.67 87.23 87.67 87.23 91.03 97 91.03 97 94.09 93.79 94.09 93.94 99.92 99.34 99.92 99.34 70.17 87.23 70.17"/><polygon class="cls-4" points="64.33 99.92 67.83 99.92 67.83 70.17 81.11 70.17 81.11 71.19 79.36 72.94 79.36 85.92 77.61 86.07 77.61 87.82 79.36 87.82 79.36 91.03 70.53 91.17 70.53 94.67 73.23 94.67 73.23 99.92 93.94 99.92 93.79 94.09 97 94.09 97 91.03 87.23 91.03 87.23 87.67 89.86 87.67 89.86 85.92 87.81 85.92 88.4 72.5 87.23 71.48 87.23 70.17 99.34 70.17 99.34 99.92 100.5 99.92 100.5 62.01 64.33 62.01 64.33 99.92"/><polygon class="cls-3" points="40.85 102.26 61.42 100.24 61.42 69.44 40.85 67.84 40.85 102.26"/><polygon class="cls-3" points="67.83 99.92 73.23 99.92 73.23 94.67 70.53 94.67 70.53 91.17 79.36 91.03 79.36 87.82 77.61 87.82 77.61 86.07 79.36 85.92 79.36 72.94 81.11 71.19 81.11 70.17 67.83 70.17 67.83 99.92"/><polygon class="cls-3" points="87.23 71.48 88.4 72.5 87.81 85.92 89.86 85.92 89.86 87.67 87.23 87.67 87.23 91.03 97 91.03 97 94.09 93.79 94.09 93.94 99.92 99.34 99.92 99.34 70.17 87.23 70.17 87.23 71.48"/><polygon class="cls-4" points="104 69.59 124.86 68.84 124.86 101.94 129.7 102.26 129.7 63.76 104 62.01 104 69.59"/><polygon class="cls-3" points="104 69.59 104 100.65 124.86 101.94 124.86 68.84 104 69.59"/><polygon class="cls-5" points="35.16 63.46 35.16 102.99 37.79 102.64 37.79 64.34 63.02 62.01 63.02 99.92 65.92 99.92 65.92 62.01 100.5 62.01 100.5 60.55 62.58 60.55 35.16 63.46"/><path class="cls-6" d="M91.46,38.09V35.61l-3.35-2.92V22.34h2.33l1-2.77-8.17-4.81,3.94,5-14.44.44,2,2.48h1.31l9.77-.29v10.5L87.23,35v2.63l17.5,20v2.92H60.25L29.62,63.75l5.54,3.94h0l2.63-2.33,21.29-1.9H62l9.77,3.94,31.06-.15v79.12H117L130.69,147l0.44-79.48,5.25-4.08V60.84Zm38.24,73.5L104,110V71.34l25.7,1.76v38.5Z" transform="translate(0 -9.33)"/><polygon class="cls-7" points="62 54.13 62 60.55 100.5 60.55 100.5 62.01 100.5 99.92 99.34 99.92 93.94 99.92 73.23 99.92 67.83 99.92 63.02 99.92 63.02 137.04 102.84 137.04 102.84 62.01 102.84 57.92 71.77 58.07 62 54.13"/><polygon class="cls-7" points="87.23 28.32 87.23 25.69 85.92 23.5 85.92 13 81.11 13.15 81.11 23.79 80.23 25.98 80.23 28.17 60.25 49.17 60.25 51.21 104.73 51.21 104.73 48.3 87.23 28.32"/><path class="cls-8" d="M141,187.19c-2.41-27,26.14-29,26.14-29v-9.5l-10.06-.56-39.27-2.41h-2.55v-10.5c13.56,7,25.23,6.13,39.3,2V148l2.52,0.15V116.5s-1.42-1.75-2.52,0v2.41s-25.52,5.69-39.3-3.65v-2s-2.48-1.9-3.94,0v1.6s-25.67,7.29-57.1.36v-1.82a2.63,2.63,0,0,0-3.21-.07v2.26a152,152,0,0,1-38.88,2.11v-0.95a2.45,2.45,0,0,0-3.5-.07c0,1.82.09,31.9,0.09,31.9L0,149.22v8.26H4.38c21.92,0,23,25.67,23,25.67l-1.63,17.06H142.23C141.66,194.15,141.25,189.68,141,187.19Zm-25.74-70.48s12.62,9.19,39.3,3.57v15.17s-22.17,9.41-39.3-2v-16.7ZM51,145.74H49l-36.9,2.54V137.5a67.29,67.29,0,0,0,39-1v9.26Zm0-11.16s-17,7.61-39,1.46V118.61s15.77,2.48,39-1.9v17.87Zm60.31,11.16H54.25v-10.5s10.21,3.14,29,3.14,28.07-3.14,28.07-3.14v10.5Zm0-12.4s-25.38,7.8-57.1.58V116.71s29.5,7.15,57.1,0v16.63Z" transform="translate(0 -9.33)"/><path class="cls-9" d="M108.8,184.6s-0.71-19.49,9-33H49s12.12,4.82,11.39,30.78c-0.1,3.47-.31,9.67-0.59,17.79h49.56Z" transform="translate(0 -9.33)"/><path class="cls-10" d="M141,187.19s-4.16-25.16,26.14-29v-9.5l-49.33-3v5.9s-9.33,12-9,33c0,2.34.19,7.79,0.43,15.6h33Z" transform="translate(0 -9.33)"/><path class="cls-11" d="M57.2,162.47h0c14,6.56,35.66,16.14,51.59,22.67,0-5.28-.1-20.08,9-33.5H49L0,155.36v2.12s13.89-2,20.72,7.39" transform="translate(0 -9.33)"/><path class="cls-12" d="M131.55,146.39" transform="translate(0 -9.33)"/><path class="cls-13" d="M154.59,118.9s-25.52,5.69-39.3-3.65v-2s-2.48-1.9-3.94,0v1.6s-25.67,7.29-57.1.36v1.53s29.5,7.15,57.1,0v16.63s-25.38,7.8-57.1.58v1.31s10.21,3.14,29,3.14,28.07-3.14,28.07-3.14v10.5h3.94v-10.5c13.56,7,25.23,6.13,39.3,2v-1.75s-22.17,9.41-39.3-2v-16.7s12.62,9.19,39.3,3.57V118.9Z" transform="translate(0 -9.33)"/><path class="cls-14" d="M238.18,30.73h14.48V95.59H238.18l-30.9-40.64V95.59H192.8V30.73h13.55l31.83,41.76V30.73Z" transform="translate(0 -9.33)"/><path class="cls-14" d="M284.33,68l11.51-37.3H311L322.37,68l12.9-37.3H351L328.31,95.59H317.55l-14.2-45.1-14.1,45.1H278.48L255.84,30.73h15.68Z" transform="translate(0 -9.33)"/><path class="cls-15" d="M381.82,82.79a21.36,21.36,0,0,0,17.45-8.44l9.28,9.56q-11,12.44-26,12.43t-24.68-9.47q-9.7-9.46-9.7-23.89T358,38.9a33.29,33.29,0,0,1,24.17-9.65A34.26,34.26,0,0,1,408.92,41.4l-9,10.21q-6.87-8.54-17.07-8.54a19.9,19.9,0,0,0-14,5.34q-5.8,5.34-5.8,14.38t5.48,14.52A18.06,18.06,0,0,0,381.82,82.79Z" transform="translate(0 -9.33)"/><path class="cls-15" d="M443.12,82.79a21.36,21.36,0,0,0,17.45-8.44l9.28,9.56q-11,12.44-26,12.43t-24.68-9.47q-9.7-9.46-9.7-23.89t9.88-24.08a33.29,33.29,0,0,1,24.17-9.65A34.26,34.26,0,0,1,470.22,41.4l-9,10.21q-6.87-8.54-17.07-8.54a19.9,19.9,0,0,0-14,5.34q-5.8,5.34-5.8,14.38t5.48,14.52A18.06,18.06,0,0,0,443.12,82.79Z" transform="translate(0 -9.33)"/><path class="cls-15" d="M493.91,78.84a11.85,11.85,0,0,0,9.74,4.5,11.72,11.72,0,0,0,9.7-4.5q3.57-4.5,3.57-12.3V30.73H531.4V67q0,14.11-7.79,21.67t-20,7.56q-12.16,0-20-7.61T475.82,67V30.73H490.3V66.55Q490.3,74.34,493.91,78.84Z" transform="translate(0 -9.33)"/><path class="cls-16" d="M205.48,128.78H208v14.83h-2.72l-8.4-10.82v10.82h-2.5V128.78h2.5l8.62,11.08V128.78Z" transform="translate(0 -9.33)"/><path class="cls-16" d="M224.51,141.56a8.13,8.13,0,0,1-11.12,0,7.79,7.79,0,0,1,0-10.95,8.14,8.14,0,0,1,11.12,0A7.79,7.79,0,0,1,224.51,141.56Zm-1.84-9.28a5.2,5.2,0,0,0-7.45,0,5.54,5.54,0,0,0,0,7.62,5.2,5.2,0,0,0,7.45,0A5.54,5.54,0,0,0,222.68,132.28Z" transform="translate(0 -9.33)"/><path class="cls-16" d="M241.76,133.59q0,3.67-3.2,4.63l3.88,5.39h-3.18l-3.54-5h-3.29v5h-2.5V128.78h5.52q3.39,0,4.86,1.15A4.38,4.38,0,0,1,241.76,133.59Zm-3.33,2.1a2.64,2.64,0,0,0,.76-2.11,2.26,2.26,0,0,0-.79-2,5.22,5.22,0,0,0-2.8-.54h-3.18v5.31h3.12A4.59,4.59,0,0,0,238.43,135.69Z" transform="translate(0 -9.33)"/><path class="cls-16" d="M250.76,131.07v12.54h-2.5V131.07h-4.5v-2.29h11.5v2.29h-4.5Z" transform="translate(0 -9.33)"/><path class="cls-16" d="M258,143.61V128.78h2.5v6.43h7.36v-6.43h2.5v14.83h-2.5v-6.07h-7.36v6.07H258Z" transform="translate(0 -9.33)"/><path class="cls-16" d="M279.09,139.45l3.31-10.67h2.25L288,139.45l3.73-10.67h2.69l-5.18,14.83h-2.48l-3.12-10.16h-0.17l-3.12,10.16h-2.48l-5.18-14.83h2.69Z" transform="translate(0 -9.33)"/><path class="cls-16" d="M307.12,128.78v2.36h-7.92v3.93h7.11v2.23h-7.11v4h8.17v2.36H296.71V128.78h10.42Z" transform="translate(0 -9.33)"/><path class="cls-16" d="M315.07,130.73a3.29,3.29,0,0,0-1.79.45,1.49,1.49,0,0,0-.7,1.35,1.57,1.57,0,0,0,.7,1.38,10.56,10.56,0,0,0,3,1,8.21,8.21,0,0,1,3.44,1.55,3.67,3.67,0,0,1,1.16,2.94,3.89,3.89,0,0,1-1.46,3.15,5.83,5.83,0,0,1-3.84,1.21,9,9,0,0,1-6.18-2.4l1.57-1.89a7.07,7.07,0,0,0,4.67,2,3.18,3.18,0,0,0,1.92-.52,1.63,1.63,0,0,0,.71-1.38,1.55,1.55,0,0,0-.67-1.34,7,7,0,0,0-2.3-.87,20.68,20.68,0,0,1-2.48-.72,5.59,5.59,0,0,1-1.51-.86A3.59,3.59,0,0,1,310,132.7a3.72,3.72,0,0,1,1.5-3.17,6,6,0,0,1,3.7-1.11,8.89,8.89,0,0,1,2.82.47,7.39,7.39,0,0,1,2.42,1.32l-1.34,1.89a5.06,5.06,0,0,0-1.78-1A6.87,6.87,0,0,0,315.07,130.73Z" transform="translate(0 -9.33)"/><path class="cls-16" d="M329.55,131.07v12.54h-2.5V131.07h-4.5v-2.29h11.5v2.29h-4.5Z" transform="translate(0 -9.33)"/><path class="cls-16" d="M349.35,141.34a5.24,5.24,0,0,0,2.23-.43,7.68,7.68,0,0,0,2-1.39l1.61,1.66a7.42,7.42,0,0,1-5.72,2.61,7.66,7.66,0,0,1-5.58-2.16,7.87,7.87,0,0,1,0-11,7.84,7.84,0,0,1,5.71-2.21,7.47,7.47,0,0,1,5.76,2.55l-1.59,1.74a6.94,6.94,0,0,0-2-1.42,5.62,5.62,0,0,0-2.22-.4,5.27,5.27,0,0,0-3.78,1.45,4.9,4.9,0,0,0-1.53,3.71,5.13,5.13,0,0,0,1.52,3.78A4.92,4.92,0,0,0,349.35,141.34Z" transform="translate(0 -9.33)"/><path class="cls-16" d="M370.3,141.56a8.13,8.13,0,0,1-11.12,0,7.79,7.79,0,0,1,0-10.95,8.14,8.14,0,0,1,11.12,0A7.79,7.79,0,0,1,370.3,141.56Zm-1.84-9.28a5.2,5.2,0,0,0-7.45,0,5.54,5.54,0,0,0,0,7.62,5.2,5.2,0,0,0,7.45,0A5.54,5.54,0,0,0,368.46,132.28Z" transform="translate(0 -9.33)"/><path class="cls-16" d="M378.21,143.61h-2.5V128.78h3.9l4.48,9.32,4.48-9.32h3.88v14.83h-2.5V132l-5.18,10.29h-1.4L378.21,132v11.59Z" transform="translate(0 -9.33)"/><path class="cls-16" d="M399.07,143.61h-2.5V128.78h3.9l4.48,9.32,4.48-9.32h3.88v14.83h-2.5V132l-5.18,10.29h-1.4L399.07,132v11.59Z" transform="translate(0 -9.33)"/><path class="cls-16" d="M417.43,128.78h2.5v14.83h-2.5V128.78Z" transform="translate(0 -9.33)"/><path class="cls-16" d="M428.54,130.73a3.29,3.29,0,0,0-1.79.45,1.49,1.49,0,0,0-.7,1.35,1.57,1.57,0,0,0,.7,1.38,10.56,10.56,0,0,0,3,1,8.21,8.21,0,0,1,3.44,1.55,3.67,3.67,0,0,1,1.16,2.94,3.89,3.89,0,0,1-1.46,3.15,5.83,5.83,0,0,1-3.84,1.21,9,9,0,0,1-6.17-2.4l1.57-1.89a7.07,7.07,0,0,0,4.67,2,3.18,3.18,0,0,0,1.92-.52,1.63,1.63,0,0,0,.71-1.38,1.55,1.55,0,0,0-.67-1.34,7,7,0,0,0-2.3-.87,20.68,20.68,0,0,1-2.48-.72,5.6,5.6,0,0,1-1.51-.86,3.59,3.59,0,0,1-1.32-3.06,3.72,3.72,0,0,1,1.5-3.17,6,6,0,0,1,3.7-1.11,8.89,8.89,0,0,1,2.82.47,7.39,7.39,0,0,1,2.42,1.32l-1.34,1.89a5.06,5.06,0,0,0-1.78-1A6.87,6.87,0,0,0,428.54,130.73Z" transform="translate(0 -9.33)"/><path class="cls-16" d="M441.91,130.73a3.29,3.29,0,0,0-1.79.45,1.49,1.49,0,0,0-.7,1.35,1.57,1.57,0,0,0,.7,1.38,10.56,10.56,0,0,0,3,1,8.21,8.21,0,0,1,3.44,1.55,3.67,3.67,0,0,1,1.16,2.94,3.89,3.89,0,0,1-1.46,3.15,5.83,5.83,0,0,1-3.84,1.21,9,9,0,0,1-6.17-2.4l1.57-1.89a7.07,7.07,0,0,0,4.67,2,3.18,3.18,0,0,0,1.92-.52,1.63,1.63,0,0,0,.71-1.38,1.55,1.55,0,0,0-.67-1.34,7,7,0,0,0-2.3-.87,20.68,20.68,0,0,1-2.48-.72,5.6,5.6,0,0,1-1.51-.86,3.59,3.59,0,0,1-1.32-3.06,3.72,3.72,0,0,1,1.5-3.17,6,6,0,0,1,3.7-1.11,8.89,8.89,0,0,1,2.82.47,7.39,7.39,0,0,1,2.42,1.32l-1.34,1.89a5.06,5.06,0,0,0-1.78-1A6.87,6.87,0,0,0,441.91,130.73Z" transform="translate(0 -9.33)"/><path class="cls-16" d="M450.79,128.78h2.5v14.83h-2.5V128.78Z" transform="translate(0 -9.33)"/><path class="cls-16" d="M469.82,141.56a8.13,8.13,0,0,1-11.12,0,7.79,7.79,0,0,1,0-10.95,8.14,8.14,0,0,1,11.12,0A7.79,7.79,0,0,1,469.82,141.56ZM468,132.28a5.2,5.2,0,0,0-7.45,0,5.54,5.54,0,0,0,0,7.62,5.2,5.2,0,0,0,7.45,0A5.54,5.54,0,0,0,468,132.28Z" transform="translate(0 -9.33)"/><path class="cls-16" d="M486.36,128.78h2.5v14.83h-2.72l-8.4-10.82v10.82h-2.5V128.78h2.5l8.62,11.08V128.78Z" transform="translate(0 -9.33)"/><path class="cls-16" d="M511.2,141.56a8.13,8.13,0,0,1-11.12,0,7.79,7.79,0,0,1,0-10.95,8.14,8.14,0,0,1,11.12,0A7.79,7.79,0,0,1,511.2,141.56Zm-1.84-9.28a5.2,5.2,0,0,0-7.45,0,5.54,5.54,0,0,0,0,7.62,5.2,5.2,0,0,0,7.45,0A5.54,5.54,0,0,0,509.37,132.28Z" transform="translate(0 -9.33)"/><path class="cls-16" d="M527.74,128.78h2.5v14.83h-2.72l-8.4-10.82v10.82h-2.5V128.78h2.5l8.62,11.08V128.78Z" transform="translate(0 -9.33)"/><path class="cls-16" d="M201,166.8a5.24,5.24,0,0,0,2.23-.43,7.68,7.68,0,0,0,2-1.39l1.61,1.66a7.42,7.42,0,0,1-5.72,2.61,7.66,7.66,0,0,1-5.58-2.16,7.87,7.87,0,0,1,0-11,7.84,7.84,0,0,1,5.71-2.21,7.47,7.47,0,0,1,5.76,2.55l-1.59,1.74a7,7,0,0,0-2-1.42,5.61,5.61,0,0,0-2.22-.4,5.27,5.27,0,0,0-3.78,1.45,4.9,4.9,0,0,0-1.53,3.71,5.13,5.13,0,0,0,1.52,3.78A4.91,4.91,0,0,0,201,166.8Z" transform="translate(0 -9.33)"/><path class="cls-16" d="M222.45,167a8.13,8.13,0,0,1-11.12,0,7.79,7.79,0,0,1,0-10.95,8.14,8.14,0,0,1,11.12,0A7.79,7.79,0,0,1,222.45,167Zm-1.84-9.28a5.2,5.2,0,0,0-7.45,0,5.54,5.54,0,0,0,0,7.62,5.2,5.2,0,0,0,7.45,0A5.54,5.54,0,0,0,220.62,157.74Z" transform="translate(0 -9.33)"/><path class="cls-16" d="M228.4,169.08V154.24h2.5V166.7h6.77v2.38H228.4Z" transform="translate(0 -9.33)"/><path class="cls-16" d="M240.94,169.08V154.24h2.5V166.7h6.77v2.38h-9.27Z" transform="translate(0 -9.33)"/><path class="cls-16" d="M263.9,154.24v2.36H256v3.93h7.11v2.23H256v4h8.17v2.36H253.48V154.24H263.9Z" transform="translate(0 -9.33)"/><path class="cls-16" d="M278.16,161.86h2.5v5.07a7.7,7.7,0,0,1-6,2.31,7.57,7.57,0,0,1-5.51-2.16,7.87,7.87,0,0,1,0-11,7.53,7.53,0,0,1,5.46-2.21,7.77,7.77,0,0,1,5.33,1.87l-1.34,1.91a5.22,5.22,0,0,0-1.75-1,6.63,6.63,0,0,0-2-.29,5.27,5.27,0,0,0-3.78,1.45,5.22,5.22,0,0,0,3.55,9.05,6.41,6.41,0,0,0,3.53-.91v-4.07Z" transform="translate(0 -9.33)"/><path class="cls-16" d="M294.9,154.24v2.36H287v3.93h7.11v2.23H287v4h8.17v2.36H284.48V154.24H294.9Z" transform="translate(0 -9.33)"/><path class="cls-16" d="M303.38,156.19a3.29,3.29,0,0,0-1.79.45,1.49,1.49,0,0,0-.7,1.35,1.57,1.57,0,0,0,.7,1.38,10.56,10.56,0,0,0,3,1,8.21,8.21,0,0,1,3.44,1.55,3.67,3.67,0,0,1,1.16,2.94A3.89,3.89,0,0,1,307.7,168a5.84,5.84,0,0,1-3.84,1.21,9,9,0,0,1-6.18-2.4l1.57-1.89a7.07,7.07,0,0,0,4.67,2,3.19,3.19,0,0,0,1.92-.52,1.63,1.63,0,0,0,.71-1.38,1.55,1.55,0,0,0-.67-1.34,7,7,0,0,0-2.3-.87,20.69,20.69,0,0,1-2.48-.72,5.59,5.59,0,0,1-1.51-.86,3.59,3.59,0,0,1-1.32-3.06,3.72,3.72,0,0,1,1.5-3.17,6,6,0,0,1,3.7-1.11,8.89,8.89,0,0,1,2.82.47,7.4,7.4,0,0,1,2.42,1.32l-1.34,1.89a5.06,5.06,0,0,0-1.78-1A6.87,6.87,0,0,0,303.38,156.19Z" transform="translate(0 -9.33)"/><path class="cls-16" d="M321.24,165.7l-1.49,3.37h-2.67l6.54-14.83h2.67l6.54,14.83h-2.67l-1.49-3.37h-7.43Zm6.41-2.31L325,157.28l-2.69,6.11h5.39Z" transform="translate(0 -9.33)"/><path class="cls-16" d="M346.53,154.24H349v14.83h-2.72l-8.4-10.82v10.82h-2.5V154.24h2.5l8.62,11.08V154.24Z" transform="translate(0 -9.33)"/><path class="cls-16" d="M364.91,156.18a6.92,6.92,0,0,1,2.14,5.4,7.27,7.27,0,0,1-2.08,5.47q-2.08,2-6.37,2h-4.92V154.24h5.09A8.83,8.83,0,0,1,364.91,156.18Zm-0.38,5.46q0-5.09-5.84-5.09h-2.5v10.16H359a6,6,0,0,0,4.13-1.28A4.82,4.82,0,0,0,364.52,161.65Z" transform="translate(0 -9.33)"/><path class="cls-16" d="M380.48,165.68a3.8,3.8,0,0,0,5.52,0,4.79,4.79,0,0,0,1-3.23v-8.21h2.5v8.32a6.6,6.6,0,0,1-1.76,4.93,6.77,6.77,0,0,1-9,0,6.6,6.6,0,0,1-1.76-4.93v-8.32h2.5v8.21A4.79,4.79,0,0,0,380.48,165.68Z" transform="translate(0 -9.33)"/><path class="cls-16" d="M405.1,154.24h2.5v14.83h-2.72l-8.4-10.82v10.82H394V154.24h2.5l8.62,11.08V154.24Z" transform="translate(0 -9.33)"/><path class="cls-16" d="M412.25,154.24h2.5v14.83h-2.5V154.24Z" transform="translate(0 -9.33)"/><path class="cls-16" d="M426.17,169.08h-2.8l-6-14.83h2.8l4.56,11.08,4.56-11.08h2.8Z" transform="translate(0 -9.33)"/><path class="cls-16" d="M445.21,154.24v2.36h-7.92v3.93h7.11v2.23h-7.11v4h8.17v2.36H434.79V154.24h10.42Z" transform="translate(0 -9.33)"/><path class="cls-16" d="M461,159.06q0,3.67-3.2,4.63l3.88,5.39h-3.18l-3.54-5H451.7v5h-2.5V154.24h5.52q3.4,0,4.86,1.15A4.38,4.38,0,0,1,461,159.06Zm-3.33,2.1a2.64,2.64,0,0,0,.76-2.11,2.26,2.26,0,0,0-.78-2,5.22,5.22,0,0,0-2.8-.54H451.7v5.31h3.12A4.59,4.59,0,0,0,457.7,161.16Z" transform="translate(0 -9.33)"/><path class="cls-16" d="M469.66,156.19a3.29,3.29,0,0,0-1.79.45,1.49,1.49,0,0,0-.7,1.35,1.57,1.57,0,0,0,.7,1.38,10.56,10.56,0,0,0,3,1,8.21,8.21,0,0,1,3.44,1.55,3.67,3.67,0,0,1,1.16,2.94A3.89,3.89,0,0,1,474,168a5.83,5.83,0,0,1-3.84,1.21,9,9,0,0,1-6.17-2.4l1.57-1.89a7.07,7.07,0,0,0,4.67,2,3.18,3.18,0,0,0,1.92-.52,1.63,1.63,0,0,0,.71-1.38,1.55,1.55,0,0,0-.67-1.34,7,7,0,0,0-2.3-.87,20.68,20.68,0,0,1-2.48-.72,5.6,5.6,0,0,1-1.51-.86,3.59,3.59,0,0,1-1.32-3.06,3.72,3.72,0,0,1,1.5-3.17,6,6,0,0,1,3.7-1.11,8.89,8.89,0,0,1,2.82.47,7.39,7.39,0,0,1,2.42,1.32l-1.34,1.89a5.06,5.06,0,0,0-1.78-1A6.87,6.87,0,0,0,469.66,156.19Z" transform="translate(0 -9.33)"/><path class="cls-16" d="M479.07,154.24h2.5v14.83h-2.5V154.24Z" transform="translate(0 -9.33)"/><path class="cls-16" d="M491.83,156.53v12.54h-2.5V156.53h-4.5v-2.29h11.5v2.29h-4.5Z" transform="translate(0 -9.33)"/><path class="cls-16" d="M499.57,154.24h2.5v14.83h-2.5V154.24Z" transform="translate(0 -9.33)"/><path class="cls-16" d="M517.14,154.24v2.36h-7.92v3.93h7.11v2.23h-7.11v4h8.17v2.36H506.72V154.24h10.42Z" transform="translate(0 -9.33)"/><path class="cls-16" d="M525.62,156.19a3.29,3.29,0,0,0-1.79.45,1.49,1.49,0,0,0-.7,1.35,1.57,1.57,0,0,0,.7,1.38,10.56,10.56,0,0,0,3,1,8.21,8.21,0,0,1,3.44,1.55,3.67,3.67,0,0,1,1.16,2.94,3.89,3.89,0,0,1-1.46,3.15,5.83,5.83,0,0,1-3.84,1.21,9,9,0,0,1-6.17-2.4l1.57-1.89a7.07,7.07,0,0,0,4.67,2,3.18,3.18,0,0,0,1.92-.52,1.63,1.63,0,0,0,.71-1.38,1.55,1.55,0,0,0-.67-1.34,7,7,0,0,0-2.3-.87,20.68,20.68,0,0,1-2.48-.72,5.6,5.6,0,0,1-1.51-.86,3.59,3.59,0,0,1-1.32-3.06A3.72,3.72,0,0,1,522,155a6,6,0,0,1,3.7-1.11,8.89,8.89,0,0,1,2.82.47,7.39,7.39,0,0,1,2.42,1.32l-1.34,1.89a5.06,5.06,0,0,0-1.78-1A6.87,6.87,0,0,0,525.62,156.19Z" transform="translate(0 -9.33)"/><rect class="cls-15" x="192.66" y="101.67" width="338.6" height="2"/></g></g></svg>