<svg xmlns="http://www.w3.org/2000/svg" viewBox="0 0 799 190.87"><defs><style>.cls-1{isolation:isolate;}.cls-2{fill:#7faddc;}.cls-12,.cls-3{fill:none;}.cls-4{fill:#18325b;}.cls-5{fill:#3569a9;}.cls-6{fill:#3e73b2;}.cls-7{fill:#6899d1;}.cls-8{fill:#e0e5ec;}.cls-11,.cls-13,.cls-9{fill:#231f20;}.cls-9{opacity:0.1;}.cls-10,.cls-11,.cls-13,.cls-9{mix-blend-mode:multiply;}.cls-10{opacity:0.4;}.cls-11{opacity:0.2;}.cls-12{stroke:#231f20;stroke-miterlimit:10;stroke-width:0.25px;}.cls-13{opacity:0.29;}.cls-14{fill:#6199de;}.cls-15{fill:#2a3680;}</style></defs><title>ncu-logo-mobile</title><g class="cls-1"><g id="Layer_1" data-name="Layer 1"><path class="cls-2" d="M91.47,38.36V35.88L88.11,33V22.6h2.33l1-2.77L83.3,15l-1-5.69-1,5.83L72.8,20.42l2,2.48h1.31V33.83l-2.77,2.48v2.48L29.63,61.69V64L35.17,68v79.59l13-.9H117l13.71,0.66,0.44-79.48,5.25-4.08V61.11Zm-30,71.49-20.56,2V77.44L61.42,79v30.8ZM81.11,79.77v1l-1.75,1.75v13l-1.75.15v1.75h1.75v3.21l-8.82.15v3.5h2.7v5.25h-5.4V79.77m31.5,29.75h-5.4l-0.15-5.83H97v-3.06H87.24V97.28h2.63V95.53h-2L88.4,82.11l-1.17-1V79.77h12.1v29.75Zm4.67,0.73V79.19l20.86-.75v32.84Z" transform="translate(0 -9.33)"/><polygon class="cls-3" points="104 100.65 124.86 101.67 124.86 68.84 104 69.59 104 100.65"/><polygon class="cls-3" points="64.33 99.92 67.83 99.92 73.23 99.92 93.94 99.92 99.34 99.92 100.5 99.92 100.5 62.01 64.33 62.01 64.33 99.92"/><polygon class="cls-3" points="40.85 67.84 40.85 102.26 61.42 100.51 61.42 69.44 40.85 67.84"/><polygon class="cls-4" points="37.79 102.64 40.85 102.26 40.85 67.84 61.42 69.44 61.42 100.24 63.02 99.92 63.02 62.01 37.79 64.34 37.79 102.64"/><polygon class="cls-3" points="40.85 102.26 61.42 100.51 61.42 69.44 40.85 67.84 40.85 102.26"/><polygon class="cls-3" points="104 100.65 124.86 101.67 124.86 68.84 104 69.59 104 100.65"/><polygon class="cls-3" points="70.53 94.67 70.53 91.17 79.36 91.03 79.36 87.82 77.61 87.82 77.61 86.07 79.36 85.92 79.36 72.94 81.11 71.19 81.11 70.17 67.83 70.17 67.83 99.92 73.23 99.92 73.23 94.67 70.53 94.67"/><polygon class="cls-3" points="87.23 70.17 87.23 71.48 88.4 72.5 87.81 85.92 89.86 85.92 89.86 87.67 87.23 87.67 87.23 91.03 97 91.03 97 94.09 93.79 94.09 93.94 99.92 99.34 99.92 99.34 70.17 87.23 70.17"/><polygon class="cls-4" points="64.33 99.92 67.83 99.92 67.83 70.17 81.11 70.17 81.11 71.19 79.36 72.94 79.36 85.92 77.61 86.07 77.61 87.82 79.36 87.82 79.36 91.03 70.53 91.17 70.53 94.67 73.23 94.67 73.23 99.92 93.94 99.92 93.79 94.09 97 94.09 97 91.03 87.23 91.03 87.23 87.67 89.86 87.67 89.86 85.92 87.81 85.92 88.4 72.5 87.23 71.48 87.23 70.17 99.34 70.17 99.34 99.92 100.5 99.92 100.5 62.01 64.33 62.01 64.33 99.92"/><polygon class="cls-3" points="40.85 102.26 61.42 100.24 61.42 69.44 40.85 67.84 40.85 102.26"/><polygon class="cls-3" points="67.83 99.92 73.23 99.92 73.23 94.67 70.53 94.67 70.53 91.17 79.36 91.03 79.36 87.82 77.61 87.82 77.61 86.07 79.36 85.92 79.36 72.94 81.11 71.19 81.11 70.17 67.83 70.17 67.83 99.92"/><polygon class="cls-3" points="87.23 71.48 88.4 72.5 87.81 85.92 89.86 85.92 89.86 87.67 87.23 87.67 87.23 91.03 97 91.03 97 94.09 93.79 94.09 93.94 99.92 99.34 99.92 99.34 70.17 87.23 70.17 87.23 71.48"/><polygon class="cls-4" points="104 69.59 124.86 68.84 124.86 101.94 129.7 102.26 129.7 63.76 104 62.01 104 69.59"/><polygon class="cls-3" points="104 69.59 104 100.65 124.86 101.94 124.86 68.84 104 69.59"/><polygon class="cls-5" points="35.16 63.46 35.16 102.99 37.79 102.64 37.79 64.34 63.02 62.01 63.02 99.92 65.92 99.92 65.92 62.01 100.5 62.01 100.5 60.55 62.58 60.55 35.16 63.46"/><path class="cls-6" d="M91.46,38.09V35.61l-3.35-2.92V22.34h2.33l1-2.77-8.17-4.81,3.94,5-14.44.44,2,2.48h1.31l9.77-.29v10.5L87.23,35v2.63l17.5,20v2.92H60.25L29.62,63.75l5.54,3.94h0l2.63-2.33,21.29-1.9H62l9.77,3.94,31.06-.15v79.12H117L130.69,147l0.44-79.48,5.25-4.08V60.84Zm38.24,73.5L104,110V71.34l25.7,1.76v38.5Z" transform="translate(0 -9.33)"/><polygon class="cls-7" points="62 54.13 62 60.55 100.5 60.55 100.5 62.01 100.5 99.92 99.34 99.92 93.94 99.92 73.23 99.92 67.83 99.92 63.02 99.92 63.02 137.04 102.84 137.04 102.84 62.01 102.84 57.92 71.77 58.07 62 54.13"/><polygon class="cls-7" points="87.23 28.32 87.23 25.69 85.92 23.5 85.92 13 81.11 13.15 81.11 23.79 80.23 25.98 80.23 28.17 60.25 49.17 60.25 51.21 104.73 51.21 104.73 48.3 87.23 28.32"/><path class="cls-8" d="M141,187.19c-2.41-27,26.14-29,26.14-29v-9.5l-10.06-.56-39.27-2.41h-2.55v-10.5c13.56,7,25.23,6.13,39.3,2V148l2.52,0.15V116.5s-1.42-1.75-2.52,0v2.41s-25.52,5.69-39.3-3.65v-2s-2.48-1.9-3.94,0v1.6s-25.67,7.29-57.1.36v-1.82a2.63,2.63,0,0,0-3.21-.07v2.26a152,152,0,0,1-38.88,2.11v-0.95a2.45,2.45,0,0,0-3.5-.07c0,1.82.09,31.9,0.09,31.9L0,149.22v8.26H4.38c21.92,0,23,25.67,23,25.67l-1.63,17.06H142.23C141.66,194.15,141.25,189.68,141,187.19Zm-25.74-70.48s12.62,9.19,39.3,3.57v15.17s-22.17,9.41-39.3-2v-16.7ZM51,145.74H49l-36.9,2.54V137.5a67.29,67.29,0,0,0,39-1v9.26Zm0-11.16s-17,7.61-39,1.46V118.61s15.77,2.48,39-1.9v17.87Zm60.31,11.16H54.25v-10.5s10.21,3.14,29,3.14,28.07-3.14,28.07-3.14v10.5Zm0-12.4s-25.38,7.8-57.1.58V116.71s29.5,7.15,57.1,0v16.63Z" transform="translate(0 -9.33)"/><path class="cls-9" d="M108.8,184.6s-0.71-19.49,9-33H49s12.12,4.82,11.39,30.78c-0.1,3.47-.31,9.67-0.59,17.79h49.56Z" transform="translate(0 -9.33)"/><path class="cls-10" d="M141,187.19s-4.16-25.16,26.14-29v-9.5l-49.33-3v5.9s-9.33,12-9,33c0,2.34.19,7.79,0.43,15.6h33Z" transform="translate(0 -9.33)"/><path class="cls-11" d="M57.2,162.47h0c14,6.56,35.66,16.14,51.59,22.67,0-5.28-.1-20.08,9-33.5H49L0,155.36v2.12s13.89-2,20.72,7.39" transform="translate(0 -9.33)"/><path class="cls-12" d="M131.55,146.39" transform="translate(0 -9.33)"/><path class="cls-13" d="M154.59,118.9s-25.52,5.69-39.3-3.65v-2s-2.48-1.9-3.94,0v1.6s-25.67,7.29-57.1.36v1.53s29.5,7.15,57.1,0v16.63s-25.38,7.8-57.1.58v1.31s10.21,3.14,29,3.14,28.07-3.14,28.07-3.14v10.5h3.94v-10.5c13.56,7,25.23,6.13,39.3,2v-1.75s-22.17,9.41-39.3-2v-16.7s12.62,9.19,39.3,3.57V118.9Z" transform="translate(0 -9.33)"/><path class="cls-14" d="M281.83,45.86h25.53v114.4H281.83l-54.5-71.68v71.68H201.8V45.86h23.89l56.14,73.65V45.86Z" transform="translate(0 -9.33)"/><path class="cls-14" d="M363.23,111.66l20.29-65.79H410.2l20.13,65.79,22.75-65.79h27.66L440.8,160.26h-19l-25-79.54L371.9,160.26h-19L313,45.86h27.66Z" transform="translate(0 -9.33)"/><path class="cls-15" d="M535.18,137.68q18.82,0,30.77-14.89l16.37,16.86q-19.48,21.93-45.91,21.93t-43.53-16.69q-17.11-16.69-17.1-42.14T493.2,60.27q17.43-17,42.63-17Q564,43.25,583,64.68l-15.88,18Q555,67.63,537,67.63A35.09,35.09,0,0,0,512.35,77q-10.23,9.41-10.23,25.37T511.77,128A31.86,31.86,0,0,0,535.18,137.68Z" transform="translate(0 -9.33)"/><path class="cls-15" d="M643.3,137.68q18.82,0,30.77-14.89l16.37,16.86Q671,161.57,644.53,161.57T601,144.88q-17.11-16.69-17.1-42.14t17.43-42.47q17.43-17,42.63-17,28.15,0,47.13,21.44l-15.88,18Q663.1,67.63,645.1,67.63A35.09,35.09,0,0,0,620.47,77q-10.23,9.41-10.23,25.37T619.89,128A31.86,31.86,0,0,0,643.3,137.68Z" transform="translate(0 -9.33)"/><path class="cls-15" d="M732.88,130.72q6.38,7.94,17.18,7.94t17.1-7.94q6.3-7.94,6.3-21.69V45.86H799v64q0,24.88-13.75,38.21t-35.19,13.34q-21.44,0-35.27-13.42T701,109.86v-64h25.53V109Q726.49,122.79,732.88,130.72Z" transform="translate(0 -9.33)"/></g></g></svg>