<svg id="Layer_1" xmlns="http://www.w3.org/2000/svg" viewBox="0 0 45.3 50"><style>.st0{fill:#85a05f}</style><path class="st0" d="M42.4 15c-.9-.4-1.2-.9-1.3-1.9-.4-4.5-4.8-7.5-9.3-6.4-3.4.9-5.6 3.8-5.6 7.6v25.8c0 3.7-2.9 7-6.6 7.3-3.9.3-7.4-2.2-8.1-6-.1-.7-.3-1.5 0-2 .4-.6.2-1.2.3-1.8v-.9h2.5c3.5 0 6-2.4 6-6v-26c0-2.5-1.5-4-4-4-.3 0-.7-.1-1-.2-1-.6-2-.6-2.7.2s-.7 1.9 0 2.6c.7.8 1.7.8 2.8.3.5-.3 1.2-.2 1.8-.1.6.1.6.7.6 1.3V31c0 2-1.3 3.2-3.3 3.2H5.9c-2.1 0-3.3-1.2-3.3-3.4V4.9v-.5c0-.7.4-1.1 1.1-1.1.5 0 1.1.1 1.5.4.9.4 1.9.3 2.6-.4.6-.7.6-1.7.1-2.5-.6-.8-1.7-1-2.6-.6-.5.2-1 .4-1.5.4C1.5.8 0 2.3 0 4.6v26.2c0 3.3 2.5 5.8 5.8 5.8h2.5c.2 1.3.5 2.5.6 3.7.3 6.3 6.2 10.8 12.3 9.3 4.5-1.1 7.7-5.1 7.7-9.8V13.9c0-3 2.2-5.1 5.2-5 2.7.1 4.7 2.5 4.5 5.4-.2.1-.4.2-.6.2-2.4.9-3.8 3.4-3.4 5.9.4 2.4 2.5 4.3 4.9 4.5 2.6.1 4.9-1.5 5.6-3.9.6-2.3-.4-4.9-2.7-6zm-2.5 8.8c-2.3 0-4.1-1.8-4.1-4 0-2.3 1.8-4.1 4-4.1 2.3 0 4.2 1.8 4.2 4.1 0 2.2-1.9 4-4.1 4z"/><path class="st0" d="M40 16.3c-2 0-3.6 1.5-3.6 3.4 0 .9.3 1.8 1 2.5s1.6 1.1 2.5 1.1h.1c1.9 0 3.4-1.5 3.5-3.4 0-.9-.3-1.8-1-2.5-.8-.7-1.6-1.1-2.5-1.1zm-.1 6.2s-.1 0 0 0c-.8 0-1.5-.3-2-.9-.5-.5-.8-1.2-.7-1.9 0-1.5 1.3-2.7 2.8-2.7a2.732 2.732 0 0 1 2.7 2.7c-.2 1.6-1.3 2.8-2.8 2.8z"/></svg>