<svg id="Layer_1" xmlns="http://www.w3.org/2000/svg" viewBox="0 0 42.6 50"><style>.st0{fill:#85a05f}</style><path class="st0" d="M20.9 30.5c-.6 1-1.2 2-1.6 3.1-1.8 4.5-1.7 9.2-1.2 13.9.1.7.1 1.9-.4 2.2s-1.6.1-2.3-.3c-2.3-1-3.8-2.9-4.9-5.1-1.1-2.1-2.1-4.3-3-6.5C5.4 32.3 3 26.7 1.2 21 .2 18 0 14.8 0 11.7.1 4.2 5.7-.7 13.2.1c2.4.2 4.7 1.1 7 1.9.9.3 1.5.4 2.3 0 2.8-1.4 5.8-2.1 9-1.9C38.3.7 42.4 5 42.6 11.9c.1 4.1-.6 8.1-2.1 11.9-2.5 6.6-5.2 13.1-7.9 19.6-1.2 2.7-3 5.1-5.9 6.3-.6.3-1.6.5-2 .2s-.5-1.3-.4-1.9c.6-4.7.8-9.3-.9-13.8-.5-1.3-1.2-2.4-1.9-3.6-.2-.1-.4-.1-.6-.1zm6.5 16.1c1.1-1.9 2.3-3.4 3.1-5.1 2.6-6 5.2-12.1 7.4-18.3 1.1-3.1 1.8-6.4 2.1-9.7.8-7.1-4-11.7-11-10.9-2 .2-4 .9-5.7 1.7-1.5.8-2.6.6-4 0-2-.9-4.1-1.6-6.2-1.8C6.9 1.9 2.5 5.8 2.5 12c0 2.4.1 4.8.9 7 2.2 6.4 4.6 12.6 7 18.9.7 1.8 1.5 3.5 2.5 5.2.6 1.1 1.6 2.1 2.5 3.3v-5.5c.1-3.9.6-7.7 2.9-11 1.8-2.6 4.1-2.7 5.8.1 1.1 1.8 2 3.8 2.4 5.8.5 3.4.6 6.9.9 10.8z"/><path class="st0" d="M15.3 12.1c-.6-.6-1.1-1-1.7-1.5-.7-.5-1.2-1.9 1.6-1.6h.1c3.7 0 7.5-.1 11.2 0 .8 0 2 .3 1.7 1.5-.1.6-1 1.1-1.6 1.7.4.6.9 1.4 1.5 2.3.5.8.5 1.7-.4 1.9-.5.2-2.2-1.4-2.4-1.7-1.5-2.4-6.6-.9-7.5-.4-.6.3-1.3.8-1.7 1.4-.6.8-1.1 1.2-2.1.7-.9-.5-.7-1.3-.3-2 .7-.9 1.2-1.7 1.6-2.3z"/></svg>